<svg width="20" height="20" viewBox="0 0 20 20" fill="none" xmlns="http://www.w3.org/2000/svg">
<path d="M7.70833 12.708H3.125V13.6976C3.125 14.992 4.15101 16.0413 5.41667 16.0413C6.68232 16.0413 7.70833 14.992 7.70833 13.6976V12.708Z" stroke="#557571" stroke-width="1.5"/>
<path d="M7.72251 10.6253H3.11345C1.64577 8.12533 1.99327 2.29199 5.41785 2.29199C8.84242 2.29199 9.19031 8.12533 7.72251 10.6253Z" stroke="#557571" stroke-width="1.5"/>
<path d="M16.8763 14.375H12.293V15.3646C12.293 16.659 13.319 17.7083 14.5846 17.7083C15.8503 17.7083 16.8763 16.659 16.8763 15.3646V14.375Z" stroke="#557571" stroke-width="1.5"/>
<path d="M16.8866 12.2913H12.2775C10.8098 9.79134 11.1573 3.95801 14.5819 3.95801C18.0065 3.95801 18.3544 9.79134 16.8866 12.2913Z" stroke="#557571" stroke-width="1.5"/>
</svg>
