<svg width="20" height="20" viewBox="0 0 20 20" fill="none" xmlns="http://www.w3.org/2000/svg">
<path d="M2.51599 15.3939L3.14003 15.8099L2.51599 15.3939ZM5.59543 10.7747L4.97139 10.3587L4.97139 10.3587L5.59543 10.7747ZM6.1843 10.6668L6.62023 10.0565V10.0565L6.1843 10.6668ZM8.41302 12.2587L7.97709 12.869H7.97709L8.41302 12.2587ZM8.99334 12.1631L9.60199 12.6014H9.60199L8.99334 12.1631ZM12.1365 7.7976L12.7452 8.23583L12.1365 7.7976ZM12.8289 7.82175L13.4666 7.42698L12.8289 7.82175ZM17.5238 15.4057L18.1615 15.0109L18.1615 15.0109L17.5238 15.4057ZM2.51599 15.3939L3.14003 15.8099L6.21947 11.1907L5.59543 10.7747L4.97139 10.3587L1.89195 14.9778L2.51599 15.3939ZM6.1843 10.6668L5.74837 11.2771L7.97709 12.869L8.41302 12.2587L8.84895 11.6484L6.62023 10.0565L6.1843 10.6668ZM8.99334 12.1631L9.60199 12.6014L12.7452 8.23583L12.1365 7.7976L11.5279 7.35937L8.38469 11.7249L8.99334 12.1631ZM12.8289 7.82175L12.1912 8.21651L16.8861 15.8005L17.5238 15.4057L18.1615 15.0109L13.4666 7.42698L12.8289 7.82175ZM2.86268 16.0417V16.7917H17.1695V16.0417V15.2917H2.86268V16.0417ZM17.5238 15.4057L16.8861 15.8005C16.7486 15.5784 16.9083 15.2917 17.1695 15.2917V16.0417V16.7917C18.0836 16.7917 18.6426 15.7881 18.1615 15.0109L17.5238 15.4057ZM12.1365 7.7976L12.7452 8.23583C12.6064 8.42859 12.3163 8.41847 12.1912 8.21651L12.8289 7.82175L13.4666 7.42698C13.0291 6.72011 12.0136 6.68471 11.5279 7.35937L12.1365 7.7976ZM8.41302 12.2587L7.97709 12.869C8.50001 13.2425 9.22651 13.1229 9.60199 12.6014L8.99334 12.1631L8.38469 11.7249C8.49197 11.5759 8.69954 11.5417 8.84895 11.6484L8.41302 12.2587ZM5.59543 10.7747L6.21947 11.1907C6.11501 11.3474 5.9016 11.3865 5.74837 11.2771L6.1843 10.6668L6.62023 10.0565C6.08392 9.67341 5.33698 9.81031 4.97139 10.3587L5.59543 10.7747ZM2.51599 15.3939L1.89195 14.9778C1.37508 15.7532 1.93087 16.7917 2.86268 16.7917V16.0417V15.2917C3.12891 15.2917 3.28771 15.5884 3.14003 15.8099L2.51599 15.3939ZM9.79246 5.41667H9.04246C9.04246 6.26811 8.35224 6.95833 7.5008 6.95833V7.70833V8.45833C9.18066 8.45833 10.5425 7.09653 10.5425 5.41667H9.79246ZM7.5008 7.70833V6.95833C6.64936 6.95833 5.95913 6.26811 5.95913 5.41667H5.20913H4.45913C4.45913 7.09653 5.82093 8.45833 7.5008 8.45833V7.70833ZM5.20913 5.41667H5.95913C5.95913 4.56523 6.64936 3.875 7.5008 3.875V3.125V2.375C5.82093 2.375 4.45913 3.7368 4.45913 5.41667H5.20913ZM7.5008 3.125V3.875C8.35224 3.875 9.04246 4.56523 9.04246 5.41667H9.79246H10.5425C10.5425 3.7368 9.18066 2.375 7.5008 2.375V3.125Z" fill="#557571"/>
</svg>
