<svg width="20" height="20" viewBox="0 0 20 20" fill="none" xmlns="http://www.w3.org/2000/svg">
<path d="M17.7083 3.95801H18.2083C18.2083 3.68187 17.9845 3.45801 17.7083 3.45801V3.95801ZM17.7083 16.0413V16.5413C17.9845 16.5413 18.2083 16.3175 18.2083 16.0413H17.7083ZM2.29167 16.0413H1.79167C1.79167 16.3175 2.01553 16.5413 2.29167 16.5413V16.0413ZM2.29167 3.95801V3.45801C2.01553 3.45801 1.79167 3.68187 1.79167 3.95801H2.29167ZM10 10.833L9.68339 11.22C9.86757 11.3707 10.1324 11.3707 10.3166 11.22L10 10.833ZM17.7083 3.95801H17.2083V16.0413H17.7083H18.2083V3.95801H17.7083ZM17.7083 16.0413V15.5413H2.29167V16.0413V16.5413H17.7083V16.0413ZM2.29167 16.0413H2.79167V3.95801H2.29167H1.79167V16.0413H2.29167ZM2.29167 3.95801V4.45801H17.7083V3.95801V3.45801H2.29167V3.95801ZM10 10.833L10.3166 10.446L2.81662 4.30967L2.50001 4.69665L2.18339 5.08363L9.68339 11.22L10 10.833ZM17.5 4.69665L17.1834 4.30967L9.68339 10.446L10 10.833L10.3166 11.22L17.8166 5.08363L17.5 4.69665Z" fill="#557571"/>
</svg>
