<svg width="324" height="145" viewBox="0 0 324 145" fill="none" xmlns="http://www.w3.org/2000/svg">
<path d="M312.721 124.462C305.319 124.462 301.617 120.711 301.617 113.208V110.232H310.62V114.634C310.62 115.484 310.787 116.151 311.121 116.634C311.454 117.118 311.988 117.36 312.721 117.36C314.022 117.36 314.672 116.384 314.672 114.434C314.672 112.8 314.33 111.583 313.646 110.782C312.963 109.965 312.129 109.182 311.146 108.431L306.369 104.755C304.868 103.588 303.726 102.354 302.943 101.054C302.159 99.7533 301.767 97.9443 301.767 95.6268C301.767 93.4761 302.276 91.7004 303.293 90.2999C304.326 88.8994 305.685 87.8574 307.369 87.1738C309.07 86.4902 310.904 86.1484 312.871 86.1484C320.14 86.1484 323.775 89.7747 323.775 97.0273V97.7276H314.522V96.3021C314.522 95.5518 314.388 94.8265 314.122 94.1263C313.872 93.426 313.371 93.0759 312.621 93.0759C311.354 93.0759 310.72 93.7428 310.72 95.0766C310.72 96.4271 311.254 97.4858 312.321 98.2528L317.873 102.304C319.607 103.555 321.057 105.039 322.225 106.756C323.408 108.473 324 110.757 324 113.608C324 117.143 322.991 119.835 320.974 121.686C318.973 123.537 316.222 124.462 312.721 124.462Z" fill="#00312B"/>
<path d="M284.688 124.063V86.5498H293.791V90.7263C294.224 89.2757 294.991 88.142 296.092 87.325C297.192 86.5081 298.576 86.0996 300.243 86.0996V93.5773C299.509 93.5773 298.634 93.6606 297.617 93.8274C296.6 93.9774 295.708 94.1942 294.941 94.4776C294.174 94.7444 293.791 95.0445 293.791 95.3779V124.063H284.688Z" fill="#00312B"/>
<path d="M270.134 124.462C262.664 124.462 258.93 120.586 258.93 112.833V97.7776C258.93 94.243 259.922 91.4253 261.906 89.3246C263.89 87.2071 266.632 86.1484 270.134 86.1484C273.652 86.1484 276.403 87.2071 278.387 89.3246C280.371 91.4253 281.363 94.243 281.363 97.7776V112.833C281.363 120.586 277.62 124.462 270.134 124.462ZM270.134 117.56C270.884 117.56 271.417 117.293 271.734 116.759C272.068 116.209 272.234 115.517 272.234 114.684V96.3521C272.234 94.168 271.534 93.0759 270.134 93.0759C268.733 93.0759 268.033 94.168 268.033 96.3521V114.684C268.033 115.517 268.191 116.209 268.508 116.759C268.842 117.293 269.383 117.56 270.134 117.56Z" fill="#00312B"/>
<path d="M244.669 124.462C237.2 124.462 233.465 120.586 233.465 112.833V97.7776C233.465 94.243 234.457 91.4253 236.441 89.3246C238.425 87.2071 241.168 86.1484 244.669 86.1484C248.187 86.1484 250.938 87.2071 252.922 89.3246C254.906 91.4253 255.898 94.243 255.898 97.7776V112.833C255.898 120.586 252.155 124.462 244.669 124.462ZM244.669 117.56C245.419 117.56 245.953 117.293 246.269 116.759C246.603 116.209 246.77 115.517 246.77 114.684V96.3521C246.77 94.168 246.069 93.0759 244.669 93.0759C243.268 93.0759 242.568 94.168 242.568 96.3521V114.684C242.568 115.517 242.726 116.209 243.043 116.759C243.377 117.293 243.919 117.56 244.669 117.56Z" fill="#00312B"/>
<path d="M215.636 124.461C213.902 124.461 212.526 124.144 211.509 123.51C210.492 122.877 209.733 122.002 209.233 120.884C208.733 119.767 208.4 118.459 208.233 116.958C208.083 115.458 208.008 113.849 208.008 112.131V95.8256C208.008 92.9412 208.516 90.607 209.533 88.8231C210.567 87.0391 212.309 86.1471 214.76 86.1471C216.578 86.1471 217.97 86.5389 218.937 87.3225C219.92 88.0895 220.679 89.1648 221.213 90.5487V80.0449H230.316V124.061H221.213V120.084C220.712 121.435 220.045 122.502 219.212 123.285C218.395 124.069 217.203 124.461 215.636 124.461ZM219.062 117.458C219.912 117.458 220.479 117.116 220.762 116.433C221.062 115.749 221.213 114.524 221.213 112.757V96.976C221.213 96.0923 221.079 95.2253 220.812 94.375C220.562 93.5081 219.995 93.0746 219.112 93.0746C218.145 93.0746 217.536 93.4831 217.286 94.3C217.036 95.117 216.911 96.009 216.911 96.976V112.757C216.911 115.891 217.628 117.458 219.062 117.458Z" fill="#00312B"/>
<path d="M200.303 124.461C197.886 124.461 196.252 123.952 195.401 122.935C194.568 121.902 194.151 120.326 194.151 118.209V94.8252H191.625V87.9978H194.151V80.0449H202.854V87.9978H205.38V94.8252H202.854V116.108C202.854 116.725 202.954 117.158 203.154 117.408C203.354 117.658 203.738 117.783 204.305 117.783C204.705 117.783 205.063 117.75 205.38 117.683V123.786C205.18 123.852 204.555 123.977 203.504 124.161C202.454 124.361 201.387 124.461 200.303 124.461Z" fill="#00312B"/>
<path d="M174.273 124.462C172.272 124.462 170.738 124.046 169.671 123.212C168.621 122.378 167.904 121.22 167.521 119.736C167.137 118.235 166.945 116.485 166.945 114.484V86.5488H175.949V113.433C175.949 114.934 176.065 115.984 176.299 116.585C176.532 117.168 177.082 117.46 177.949 117.46C178.883 117.46 179.466 117.043 179.7 116.209C179.95 115.376 180.075 114.3 180.075 112.983V86.5488H189.003V124.062H180.05V120.061C179.483 121.495 178.8 122.587 177.999 123.337C177.216 124.087 175.974 124.462 174.273 124.462Z" fill="#00312B"/>
<path d="M152.787 124.462C149.27 124.462 146.577 123.404 144.71 121.286C142.859 119.152 141.934 116.076 141.934 112.058V91.1506C141.934 87.3826 142.851 84.5232 144.685 82.5725C146.535 80.6218 149.236 79.6465 152.787 79.6465C156.339 79.6465 159.031 80.6218 160.865 82.5725C162.716 84.5232 163.641 87.3826 163.641 91.1506V112.058C163.641 116.076 162.708 119.152 160.84 121.286C158.99 123.404 156.305 124.462 152.787 124.462ZM152.862 116.36C154.196 116.36 154.863 115.067 154.863 112.483V91.0005C154.863 88.8331 154.213 87.7494 152.912 87.7494C151.445 87.7494 150.712 88.8581 150.712 91.0756V112.533C150.712 113.9 150.878 114.884 151.212 115.484C151.545 116.068 152.096 116.36 152.862 116.36Z" fill="#00312B"/>
<path d="M300.688 73.8702V29.8545H309.791V73.8702H300.688Z" fill="#00312B"/>
<path d="M282.763 74.2707C280.679 74.2707 279.087 73.7872 277.986 72.8202C276.902 71.8532 276.161 70.5277 275.76 68.8438C275.36 67.1598 275.16 65.2508 275.16 63.1167C275.16 60.8326 275.385 58.9652 275.835 57.5147C276.286 56.0475 277.052 54.8471 278.136 53.9134C279.237 52.9798 280.745 52.1878 282.663 51.5376L288.215 49.6369V45.7855C288.215 43.7682 287.556 42.7595 286.239 42.7595C285.039 42.7595 284.438 43.5764 284.438 45.2103V47.4611H275.735C275.719 47.3278 275.71 47.161 275.71 46.961C275.71 46.7442 275.71 46.5025 275.71 46.2357C275.71 42.501 276.586 39.8584 278.336 38.3079C280.104 36.7406 282.896 35.957 286.714 35.957C288.715 35.957 290.507 36.3155 292.091 37.0324C293.675 37.7327 294.926 38.7747 295.843 40.1585C296.776 41.5424 297.243 43.2513 297.243 45.2854V73.8706H288.34V69.419C287.906 70.9862 287.189 72.1866 286.189 73.0203C285.189 73.8539 284.047 74.2707 282.763 74.2707ZM286.289 67.3182C287.023 67.3182 287.523 67.0098 287.79 66.3929C288.056 65.776 288.19 65.1091 288.19 64.3922V53.9384C286.956 54.4386 285.997 55.0722 285.314 55.8391C284.63 56.5894 284.288 57.6981 284.288 59.1653V63.992C284.288 66.2095 284.955 67.3182 286.289 67.3182Z" fill="#00312B"/>
<path d="M257.601 74.268C255.6 74.268 254.066 73.8512 252.999 73.0176C251.949 72.184 251.232 71.0252 250.849 69.5413C250.465 68.0408 250.273 66.2902 250.273 64.2895V36.3545H259.277V63.2391C259.277 64.7396 259.393 65.79 259.627 66.3902C259.86 66.9738 260.41 67.2655 261.277 67.2655C262.211 67.2655 262.795 66.8487 263.028 66.0151C263.278 65.1815 263.403 64.1061 263.403 62.7889V36.3545H272.331V73.8679H263.378V69.8665C262.811 71.3003 262.128 72.3924 261.327 73.1426C260.544 73.8929 259.302 74.268 257.601 74.268Z" fill="#00312B"/>
<path d="M242.424 74.2703C240.007 74.2703 238.373 73.7618 237.522 72.7448C236.689 71.7111 236.272 70.1355 236.272 68.0181V44.6348H233.746V37.8073H236.272V29.8545H244.975V37.8073H247.501V44.6348H244.975V65.9174C244.975 66.5343 245.075 66.9677 245.275 67.2178C245.475 67.4679 245.859 67.593 246.426 67.593C246.826 67.593 247.184 67.5596 247.501 67.4929V73.5951C247.301 73.6618 246.676 73.7868 245.625 73.9702C244.575 74.1703 243.508 74.2703 242.424 74.2703Z" fill="#00312B"/>
<path d="M222.211 34.0552V26.6025H231.164V34.0552H222.211ZM222.211 73.8694V36.356H231.164V73.8694H222.211Z" fill="#00312B"/>
<path d="M204.508 73.8708V36.3574H213.611V40.5339C214.045 39.0834 214.811 37.9496 215.912 37.1327C217.012 36.3157 218.396 35.9072 220.063 35.9072V43.3849C219.33 43.3849 218.454 43.4683 217.437 43.635C216.42 43.785 215.528 44.0018 214.761 44.2852C213.995 44.552 213.611 44.8521 213.611 45.1855V73.8708H204.508Z" fill="#00312B"/>
<path d="M192 34.0552V26.6025H200.953V34.0552H192ZM192 73.8694V36.356H200.953V73.8694H192Z" fill="#00312B"/>
<path d="M166.344 80.1228V36.3572H175.447V40.3586C175.997 38.9748 176.756 37.8994 177.723 37.1325C178.706 36.3488 180.107 35.957 181.924 35.957C184.375 35.957 186.101 36.849 187.101 38.633C188.118 40.417 188.627 42.7511 188.627 45.6355V64.0921C188.627 66.0094 188.352 67.7434 187.801 69.2939C187.268 70.8278 186.418 72.0449 185.25 72.9452C184.1 73.8289 182.591 74.2707 180.724 74.2707C178.29 74.2707 176.531 72.8035 175.447 69.8691V80.1228H166.344ZM177.573 67.2932C178.506 67.2932 179.065 66.8264 179.248 65.8927C179.448 64.9591 179.548 63.8086 179.548 62.4415V47.7863C179.548 46.4024 179.448 45.252 179.248 44.335C179.065 43.4014 178.506 42.9345 177.573 42.9345C176.606 42.9345 176.006 43.4097 175.772 44.36C175.555 45.2937 175.447 46.4358 175.447 47.7863V62.4415C175.447 63.792 175.555 64.9424 175.772 65.8927C176.006 66.8264 176.606 67.2932 177.573 67.2932Z" fill="#00312B"/>
<path d="M153.288 74.2691C149.27 74.2691 146.369 73.2688 144.585 71.2681C142.817 69.2673 141.934 66.0829 141.934 61.7146V57.4131H150.637V62.9151C150.637 63.9321 150.787 64.7324 151.087 65.3159C151.404 65.8828 151.945 66.1662 152.712 66.1662C153.513 66.1662 154.063 65.9328 154.363 65.466C154.68 64.9991 154.838 64.2322 154.838 63.1652C154.838 61.8147 154.705 60.6893 154.438 59.789C154.171 58.872 153.704 58.005 153.038 57.188C152.387 56.3544 151.479 55.3874 150.312 54.287L146.36 50.5357C143.409 47.7513 141.934 44.5669 141.934 40.9822C141.934 37.2309 142.801 34.3715 144.535 32.4042C146.285 30.4368 148.811 29.4531 152.112 29.4531C156.147 29.4531 159.006 30.5285 160.69 32.6793C162.391 34.83 163.241 38.0979 163.241 42.4828H154.288V39.4567C154.288 38.8565 154.113 38.3896 153.763 38.0562C153.429 37.7227 152.971 37.556 152.387 37.556C151.687 37.556 151.17 37.7561 150.837 38.1562C150.52 38.5397 150.362 39.0399 150.362 39.6568C150.362 40.2737 150.528 40.9406 150.862 41.6575C151.195 42.3744 151.854 43.1997 152.837 44.1334L157.914 49.0101C158.931 49.9771 159.865 51.0025 160.715 52.0862C161.566 53.1533 162.249 54.4037 162.766 55.8375C163.283 57.2547 163.541 58.9887 163.541 61.0394C163.541 65.1742 162.774 68.417 161.24 70.7679C159.723 73.102 157.072 74.2691 153.288 74.2691Z" fill="#00312B"/>
<path d="M0 41.7289C0 37.9972 1.83993 34.5055 4.918 32.3958L49.2916 1.98185C53.1469 -0.660616 58.2302 -0.660615 62.0855 1.98185L106.459 32.3958C109.537 34.5055 111.377 37.9972 111.377 41.7289V103.208C111.377 106.936 109.541 110.424 106.468 112.535L62.0941 143.009C58.2349 145.659 53.1421 145.659 49.283 143.009L4.9094 112.535C1.83631 110.424 0 106.936 0 103.208V41.7289Z" fill="#C9F3FF"/>
<path d="M55.7066 19.2852C45.6039 19.2852 37.4141 27.4835 37.4141 37.5966C37.4141 40.6038 38.1382 43.4417 39.4214 45.9451C39.641 45.9133 39.8658 45.9067 40.0919 45.9273L41.0623 46.0155L53.4858 31.1235L53.5123 31.0922C54.634 29.785 56.65 29.7566 57.808 31.0317L57.8354 31.0623L71.6073 46.6561C73.1295 43.9846 73.9992 40.8922 73.9992 37.5966C73.9992 27.4835 65.8093 19.2852 55.7066 19.2852Z" fill="#E9A715"/>
<path fill-rule="evenodd" clip-rule="evenodd" d="M93.5295 71.5928C94.0387 72.1327 94.884 71.4557 94.4686 70.8409L89.2453 63.1131C89.2273 63.0865 89.2071 63.0613 89.1852 63.0379L88.8145 62.6432C88.7149 62.5372 88.657 62.3989 88.6512 62.2537L88.3682 55.0589C88.3641 54.9528 88.332 54.8497 88.2751 54.7599L83.9758 47.9662C83.7644 47.6323 83.2944 47.5882 83.0248 47.8772L77.3912 53.9128C77.1935 54.1246 77.1742 54.4471 77.3454 54.6809L81.6181 60.519C81.6496 60.562 81.6865 60.6005 81.7279 60.6336C81.7559 60.656 81.7859 60.676 81.8177 60.6933L84.8716 62.3475C84.9382 62.3836 84.9974 62.4318 85.0462 62.4898L85.8763 63.4775L93.5295 71.5928ZM29.1838 64.5478C28.9459 64.7012 28.8466 64.9994 28.9451 65.2648L34.2006 79.4331C34.2705 79.6217 34.4298 79.7631 34.6255 79.81L44.2388 82.118C44.2927 82.1309 44.3479 82.1363 44.403 82.1342C44.4377 82.1328 44.4723 82.1285 44.5065 82.1211L57.2952 79.372C57.4142 79.3464 57.5227 79.2855 57.6063 79.1972L64.202 72.2417C64.4171 72.015 64.4235 71.6615 64.2168 71.4272L61.8934 68.7941C61.8798 68.7788 61.867 68.7627 61.8551 68.746C61.8456 68.7329 61.8368 68.7194 61.8285 68.7055L60.756 66.919C60.7398 66.892 60.7258 66.8638 60.714 66.8347C60.6957 66.7895 60.6829 66.7421 60.676 66.6935L60.3203 64.198C60.3113 64.1352 60.2926 64.0743 60.2646 64.0174L56.185 55.6986C56.1451 55.6171 56.1241 55.5275 56.1235 55.4367L56.0603 45.2779C56.0567 44.7097 55.3416 44.4608 54.9861 44.904L49.7094 51.4817C49.2428 52.0634 48.3429 51.4475 48.7164 50.8019L55.4706 39.1244C55.5453 38.9955 55.5695 38.8435 55.5389 38.6978L55.2274 37.2206C55.1228 36.7246 54.4905 36.5707 54.1697 36.9632L43.0208 50.6038C42.9277 50.7177 42.7962 50.7937 42.651 50.8175L39.3411 51.3592C39.1749 51.3864 39.0275 51.4819 38.9347 51.6226L35.9869 56.0943L30.6126 63.5765C30.5684 63.638 30.5132 63.6906 30.4495 63.7316L29.1838 64.5478ZM12.3865 78.176C12.3607 78.2136 12.3308 78.248 12.2975 78.2786C12.2572 78.3156 12.2119 78.3472 12.1627 78.3721L1.49275 83.8016C1.2887 83.9054 1.04354 83.8848 0.859673 83.7486L0 83.1115V85.3649H111.377V74.4099L110.658 73.8467C110.559 73.7692 110.438 73.7246 110.313 73.719L107.908 73.6117C107.697 73.6023 107.507 73.4836 107.405 73.2985L102.216 63.816C101.864 63.1731 102.747 62.577 103.212 63.1433L108.889 70.0583C109.049 70.2528 109.312 70.3278 109.55 70.2464L109.861 70.1404C110.09 70.0621 110.344 70.1286 110.506 70.3092L111.377 71.2836V64.9909C111.327 64.9816 111.275 64.9786 111.222 64.9825L108.828 65.1615C108.628 65.1765 108.434 65.091 108.31 64.9334L101.17 55.8803C101.059 55.7396 100.892 55.6555 100.713 55.6507L95.4841 55.5106C95.3411 55.5068 95.2042 55.4523 95.0977 55.3569L83.1113 44.6226C82.8524 44.3907 82.4516 44.425 82.2357 44.6974L75.4127 53.3104C75.1792 53.605 74.7362 53.6169 74.4873 53.3351L70.3189 48.6153L56.14 32.5604C55.8952 32.2833 55.4612 32.2894 55.2243 32.5733L42.243 48.1337C42.116 48.2859 41.9224 48.3661 41.725 48.3481L40.8403 48.2677L39.8879 48.1812C39.6807 48.1623 39.4784 48.2516 39.3525 48.4175L28.5305 62.6851C28.3259 62.9549 27.9392 63.0035 27.6741 62.7927L18.3723 55.3951C18.1237 55.1974 17.7644 55.2263 17.5504 55.4612L8.7669 65.1086C8.59526 65.297 8.32402 65.3574 8.08874 65.2595L6.06324 64.4166C5.83753 64.3227 5.57749 64.3742 5.40467 64.547L2.17121 67.78C1.90616 68.0449 1.46638 68.0069 1.25084 67.7005L0 65.9222V75.3917L2.07338 70.1673C2.10137 70.097 2.14218 70.0325 2.1939 69.9773L4.91318 67.0741C5.05874 66.9187 5.27546 66.8515 5.48349 66.8974L8.6813 67.6025C8.89154 67.6488 9.11047 67.5797 9.25603 67.421L16.0301 60.0339C16.4468 59.5795 17.1964 59.9688 17.0643 60.5711L16.7011 62.2278C16.5974 62.7007 17.0647 63.0971 17.5143 62.9175L17.8753 62.7734C18.292 62.6069 18.7381 62.9373 18.7005 63.3844L18.1766 69.6078C18.1679 69.7123 18.132 69.8126 18.0727 69.899L12.3865 78.176Z" fill="#007C9D"/>
<path d="M109.97 72.5193V88.2569C109.971 89.9867 109.576 91.6938 108.817 93.2481C103.526 91.4727 98.3624 89.6285 92.7059 89.6271C80.4397 89.6271 68.1655 86.7071 56.4344 84.0276C54.0818 83.4899 51.8716 82.7398 49.6992 81.9934C51.8664 81.2218 54.668 80.8442 56.1413 80.2499C58.3698 79.3519 60.4368 78.9504 62.7379 78.4019C67.342 77.3046 71.7737 75.6771 76.3684 74.5385C80.7847 73.4445 84.6893 72.5039 89.2877 72.5039C93.2724 72.5039 96.9981 73.0435 100.866 73.3462C104.064 73.5938 107.013 73.0299 109.97 72.5193Z" fill="#B8D120"/>
<path d="M109.509 91.7754C108.525 93.7895 110.464 106.316 108.61 107.579L102.494 114.405C101.221 113.907 95.6912 118.437 94.498 118.102C91.8747 117.365 90.0718 114.765 87.3884 114.405C82.5138 113.752 77.4063 121.113 72.2641 121.213C67.1921 121.312 62.9818 117.611 58.0449 118.781C53.3357 119.897 49.0327 119.63 44.4858 121.213C38.2083 123.398 27.5994 119.02 21.1958 120.704L3.40658 109.729C1.66753 108.544 2.89313 96.0858 1.90978 94.227C0.926434 92.3682 1.90941 87.8455 1.9098 85.7431V80.7058C5.02141 80.0485 7.97129 78.138 11.0802 77.4961C15.4229 76.6001 19.7373 76.3663 24.1103 75.753C30.5734 74.8496 35.8965 76.7287 41.434 78.6301C43.9025 79.4777 46.414 80.3307 49.0872 80.9402C62.4173 83.9831 76.3629 87.297 90.3027 87.2991C96.7307 87.2986 103.496 89.7592 109.509 91.7754Z" fill="#628237"/>
<path d="M99.1933 105.411C79.0904 109.371 46.805 113.633 27.5695 105.411C18.3836 101.484 9.80697 105.507 3.33984 111.235C3.81808 111.71 4.34213 112.146 4.90803 112.534L49.2816 143.008C53.1408 145.659 58.2337 145.659 62.0929 143.008L106.466 112.534C108.468 111.16 109.945 109.2 110.732 106.97C107.351 105.279 103.502 104.562 99.1933 105.411Z" fill="#00312B"/>
<path d="M108.36 103.208V41.7289C108.36 38.9923 107.01 36.4317 104.753 34.8846L60.3797 4.47067C57.5524 2.53287 53.8247 2.53287 50.9974 4.47067L6.62387 34.8846C4.36661 36.4317 3.01733 38.9923 3.01733 41.7289V103.208C3.01733 105.941 4.36397 108.5 6.61757 110.048L50.9911 140.522C53.8212 142.465 57.5559 142.465 60.386 140.522L62.0941 143.009C58.2349 145.659 53.1421 145.659 49.283 143.009L4.90942 112.535C4.3435 112.146 3.81945 111.711 3.34116 111.236C1.22223 109.131 0 106.249 0 103.208V83.1106V75.3908V41.7289C0 38.0264 1.8113 34.5601 4.8461 32.4455L4.918 32.3958L49.2916 1.98185C53.1469 -0.660616 58.2302 -0.660616 62.0855 1.98185L106.459 32.3957C109.537 34.5055 111.377 37.9972 111.377 41.7289L111.377 64.99V71.2827V74.409V85.364L111.377 103.208C111.377 104.507 111.154 105.777 110.733 106.971C109.947 109.2 108.47 111.16 106.468 112.535L62.0941 143.009L60.386 140.522L104.76 110.048C107.013 108.5 108.36 105.941 108.36 103.208Z" fill="#0C370D"/>
<path fill-rule="evenodd" clip-rule="evenodd" d="M82.2239 103.606C82.1 103.509 81.9325 103.507 81.7837 103.531C81.5889 103.573 81.3968 103.626 81.2086 103.692C80.9063 103.78 80.5931 103.863 80.2835 103.933C80.6529 103.192 80.682 102.958 80.4086 102.16C80.3766 102.066 80.3119 101.899 80.223 101.842C80.1551 101.808 80.0765 101.802 80.0041 101.825C79.9663 101.842 79.9328 101.867 79.9062 101.898C79.8796 101.929 79.8605 101.966 79.8505 102.006C79.6945 102.481 79.9884 102.767 79.6691 103.299C79.5959 103.431 79.4894 103.542 79.3601 103.62C79.2892 103.661 79.2105 103.686 79.1293 103.694C79.048 103.702 78.966 103.693 78.8885 103.667C78.5825 103.57 78.233 103.233 78.0927 102.943C78.0463 102.858 78.018 102.764 78.0097 102.667C78.0013 102.57 78.0131 102.473 78.0443 102.381C78.1187 102.195 78.2644 102.114 78.4422 102.043C78.8655 101.872 79.4557 101.642 79.66 101.19C79.7205 101.054 79.7513 100.843 79.6872 100.703C79.6749 100.671 79.6555 100.641 79.6303 100.618C79.6052 100.594 79.5751 100.576 79.5421 100.566C79.2827 100.482 78.8957 100.77 78.6212 100.807C78.2324 100.863 77.803 100.795 77.4118 100.782C76.864 100.765 76.3204 100.883 75.7949 101.024C75.3619 100.908 75.0009 100.563 74.6678 100.275C74.184 99.8563 73.6767 99.43 73.2728 98.933C73.0375 98.6432 72.8374 98.3226 72.6312 98.0122C72.0646 97.1621 71.5313 96.2612 70.8703 95.4799C70.6845 95.2558 70.4824 95.0457 70.2657 94.8513C69.892 94.5132 69.3931 94.1768 69.1409 93.733C68.5362 92.6655 68.3204 91.1536 67.9412 89.9792C67.7392 89.353 67.3039 88.486 67.2192 87.8659C67.1739 87.5356 67.2894 87.1485 67.3305 86.8195C67.353 86.5851 67.3619 86.3496 67.3571 86.1142C67.3674 83.9616 66.5789 81.3007 64.2871 80.6135C63.7229 80.4445 63.1437 80.4167 62.594 80.1909C62.0945 79.988 61.5055 79.4802 60.9861 79.191C60.3971 78.8601 59.7368 78.6367 59.1721 78.2695C58.9845 78.1578 58.8262 78.0032 58.7101 77.8185C58.496 77.4472 58.412 75.995 58.5287 75.6007C58.5922 75.3827 58.7065 75.1781 58.7984 74.9679C58.93 74.6631 59.0162 74.3407 59.0542 74.0109C59.2356 73.9904 59.4623 73.9958 59.5881 73.84C59.7937 73.5846 60.0809 72.5515 60.1323 72.2013C60.166 71.9736 60.1682 71.7424 60.139 71.5142C60.1202 71.3747 60.0851 71.1941 59.9618 71.106C59.9335 71.0861 59.9014 71.0723 59.8674 71.0655C59.8983 70.7999 59.9376 70.5414 59.9884 70.248C60.0204 70.0632 59.8995 69.8772 59.9164 69.6883C59.9431 69.4906 59.9801 69.2945 60.0271 69.1007C60.0625 69.246 60.0905 69.3929 60.1111 69.5409C60.1239 69.3277 60.1069 69.1137 60.0604 68.9051C60.0885 68.7224 60.0885 68.5365 60.0604 68.3538C60.0047 68.0072 59.7828 67.4445 59.6437 66.9904C59.8771 67.4004 59.9388 67.4916 60.0465 67.9517C59.8923 66.9017 60.0386 66.5346 59.1261 66.0286L59.475 65.874C59.2554 65.9117 59.0324 65.925 58.8099 65.9139C59.0233 65.8076 59.0801 65.6609 58.9538 65.3535C58.8552 66.0062 57.4548 65.2225 57.0563 65.0516C56.4443 64.8264 55.9969 64.7062 55.4539 64.3409L55.6474 64.6501C55.3601 64.5686 55.1533 64.536 55.0009 64.2051C54.9405 64.571 55.114 64.6881 55.3172 64.8693C54.851 64.9484 54.0504 65.0601 53.5775 64.5891C53.6325 64.9176 53.6446 64.891 53.8007 65.1706C53.1875 65.4121 52.766 65.5365 52.4135 66.2834C52.5906 66.1771 52.7799 66.0419 53.0315 66.0751C52.5326 66.7658 51.888 67.0545 51.5198 67.747C51.7084 67.5429 51.8463 67.4451 52.0301 67.4173C51.9121 67.6051 51.8088 67.8017 51.7211 68.0054L52.0658 67.8243C51.7701 69.2221 51.8009 69.2964 51.908 70.6876C51.9957 70.7503 52.0685 70.8315 52.1214 70.9255C52.1214 70.9472 52.1214 70.9695 52.1214 70.9919C52.0332 70.8965 51.9521 70.7926 51.8148 70.7745C51.7804 70.7691 51.7451 70.7717 51.7119 70.7822C51.6786 70.7927 51.6483 70.8107 51.6232 70.8349C51.4182 71.0353 51.4823 71.8293 51.5101 72.1119C51.5373 72.3836 51.651 72.6312 51.7272 72.8902C51.7834 73.0816 51.81 73.2881 51.8862 73.4723C51.9215 73.5741 51.9805 73.666 52.0585 73.7404C52.0858 73.763 52.1182 73.7785 52.153 73.7854C52.1877 73.7924 52.2236 73.7906 52.2575 73.7803C52.3165 73.7665 52.3742 73.7475 52.4298 73.7235C52.466 74.0349 52.5181 74.3442 52.5858 74.6503C52.6541 74.9226 52.7733 75.1986 52.8071 75.4775C52.8591 75.9141 52.7963 77.144 52.6898 77.5595C52.6525 77.7007 52.5867 77.8328 52.4963 77.9477C52.1335 78.4205 51.3365 78.6916 50.8032 78.9512C50.5056 79.0902 50.2168 79.2473 49.9385 79.4216C49.5709 79.6631 49.2165 79.9518 48.8102 80.1226C48.0186 80.4547 47.117 80.4487 46.3461 80.8237C46.2977 80.8466 46.2493 80.8714 46.2022 80.8973C46.155 80.9233 46.109 80.9511 46.0631 80.9806C46.0171 81.0102 45.9736 81.041 45.93 81.0718C45.8865 81.1026 45.8436 81.137 45.8025 81.1714C45.7613 81.2059 45.7202 81.2421 45.6815 81.2789C45.6428 81.3158 45.6041 81.3544 45.5672 81.3942C45.5303 81.4341 45.4953 81.4739 45.4608 81.515C45.4263 81.5561 45.3937 81.5995 45.3622 81.6436C45.075 82.0427 44.9214 82.5143 44.7702 82.9768C44.3766 84.1845 44.1305 85.3317 44.2714 86.6075C44.3113 86.9656 44.4322 87.4359 44.3609 87.7825C44.2623 88.2607 43.8009 88.7402 43.6165 89.2184C43.0118 90.778 43.2005 92.1414 42.0861 93.5235C41.8049 93.8725 41.4566 94.0887 41.1095 94.3622C40.851 94.5696 40.6127 94.8009 40.3978 95.053C39.8324 95.7069 39.3698 96.4351 38.8655 97.1367C38.1344 98.159 37.2377 99.2271 36.2049 99.9577C35.8505 100.209 35.449 100.458 35.0082 100.508C34.5462 100.561 34.2118 100.344 33.7746 100.285C33.5455 100.254 33.3296 100.318 33.1095 100.366C32.4673 100.507 32.0537 100.208 31.5022 99.9504C31.3813 99.8931 31.2603 99.8297 31.1497 99.9462C31.1165 99.9873 31.0927 100.035 31.08 100.086C31.0672 100.138 31.0659 100.191 31.0759 100.243C31.1146 100.551 31.3178 100.817 31.5597 100.996C31.6038 101.028 31.6492 101.057 31.6957 101.086C31.7423 101.116 31.7913 101.139 31.8402 101.162C31.8892 101.186 31.94 101.206 31.9914 101.223C32.0428 101.24 32.0954 101.256 32.148 101.27C32.3929 101.33 32.9601 101.287 33.0158 101.602C33.0587 101.843 32.8422 102.197 32.6965 102.383C32.4407 102.711 32.0851 103.003 31.7707 103.274C31.4889 103.089 31.2761 102.902 31.0995 102.613C31.1098 102.359 31.2343 101.817 31.0275 101.633C30.9903 101.603 30.9465 101.583 30.8998 101.573C30.8531 101.563 30.8047 101.564 30.7585 101.576C30.6115 101.618 30.4991 101.839 30.4477 101.97C30.2904 102.372 30.3346 102.843 30.513 103.228C30.5632 103.337 30.6387 103.454 30.646 103.575L30.6273 103.611C30.5961 103.617 30.5641 103.617 30.5329 103.611L30.5523 103.571L30.5257 103.608C30.1991 103.443 29.5207 102.716 29.1893 102.807C29.1553 102.814 29.1234 102.828 29.0957 102.849C29.0681 102.87 29.0455 102.897 29.0297 102.928C29.0091 102.984 29.0007 103.044 29.005 103.104C29.0094 103.164 29.0265 103.222 29.0551 103.274C29.1887 103.553 29.5298 103.769 29.7934 103.916C29.7148 103.968 29.6198 104.021 29.5902 104.117C29.5796 104.15 29.5764 104.184 29.5809 104.218C29.5854 104.252 29.5975 104.284 29.6162 104.313C29.8581 104.699 31.3093 105.01 31.7846 105.081C32.2714 105.153 32.4413 104.913 32.789 104.909C32.9777 104.909 33.2056 104.981 33.3895 105.025C33.745 104.909 34.0147 104.657 34.3666 104.536C34.3999 104.525 34.4325 104.513 34.4652 104.501C34.0062 105.306 33.9512 106.15 34.2003 107.037C34.3926 107.724 34.8274 108.356 35.4581 108.709C35.8523 108.93 36.2732 108.89 36.6765 109.047C37.0151 109.179 37.303 109.434 37.6271 109.6C38.519 110.059 39.5252 110.315 40.5139 110.458C39.8886 110.751 39.1418 110.957 38.8879 111.687C38.874 111.727 38.8631 111.768 38.8528 111.807L38.9671 112.13C38.8462 112.331 38.7343 112.532 38.7857 112.776C38.8237 112.921 38.9053 113.052 39.0197 113.15C40.0071 113.464 40.4492 112.826 41.277 112.816C41.7807 112.811 42.2935 112.9 42.7923 112.966C43.5373 113.064 44.2829 113.162 45.0339 113.2C46.4489 113.27 47.8669 113.127 49.2697 112.955C50.571 112.797 51.8652 112.596 53.1524 112.351C53.9321 112.22 54.7087 112.074 55.4823 111.912C56.021 111.802 56.6463 111.61 57.1887 111.61C57.8405 111.606 58.8068 111.81 59.495 111.883C60.7763 112.02 62.0618 112.1 63.3444 112.214C63.9267 112.266 64.506 112.357 65.0883 112.402C65.6342 112.439 66.1822 112.433 66.727 112.382C67.1461 112.347 67.5651 112.289 67.9866 112.302C68.3893 112.314 68.6191 112.465 68.9843 112.533C69.4076 112.612 70.3576 112.568 70.626 112.173C70.652 112.139 70.6704 112.1 70.6801 112.059C70.6898 112.017 70.6905 111.974 70.6823 111.932C70.6666 111.886 70.6463 111.842 70.6218 111.8C70.617 111.79 70.6127 111.78 70.6085 111.771C71.1938 111.61 71.8263 111.568 72.3905 111.352C72.9952 111.121 73.4493 110.628 74.0117 110.323C74.4392 110.09 74.9108 109.992 75.3698 109.845C76.0809 109.617 76.7406 109.043 77.1052 108.396C77.5001 107.695 77.5043 106.81 77.2867 106.052C77.1972 105.774 77.0845 105.505 76.9498 105.246C77.2927 105.385 77.6489 105.465 78.0026 105.569C78.1876 105.624 78.3781 105.705 78.5662 105.744C78.6176 105.754 78.6698 105.76 78.7222 105.762C78.7745 105.764 78.8269 105.761 78.8788 105.754C79.1352 105.721 79.3625 105.572 79.6159 105.534C79.885 105.496 80.1601 105.562 80.4207 105.457C80.6118 105.379 81.8254 104.43 81.9004 104.272C81.9193 104.222 81.9331 104.171 81.9415 104.118C82.0685 104.03 82.3291 103.968 82.3352 103.787C82.3233 103.714 82.2833 103.649 82.2239 103.606ZM59.7012 70.7588C59.7066 70.8729 59.7151 70.9762 59.7266 71.0764H59.7205C59.6943 71.0842 59.6688 71.0943 59.6443 71.1066C59.6612 70.9876 59.6788 70.8717 59.7018 70.763L59.7012 70.7588ZM48.7848 99.253C48.6542 99.5912 48.6548 100.061 48.3434 100.301C48.2363 100.383 48.0567 100.421 47.9763 100.529C47.8608 100.688 47.9334 100.99 47.9666 101.169C47.2979 101.554 46.9991 101.395 46.3165 101.41C45.9403 101.42 45.7529 101.566 45.5068 101.825C45.0303 101.892 44.5435 102.146 44.0616 102.137C43.5258 102.127 43.0796 101.854 42.4948 101.904C41.9966 101.946 41.5878 102.18 41.1119 102.278C40.8839 102.325 40.6046 102.292 40.3687 102.302C39.1551 102.404 37.8974 102.488 36.7303 102.863C37.5545 102.038 38.5698 101.583 39.5911 101.061C40.3313 100.683 41.0817 100.291 41.7873 99.8532C42.3152 99.5242 42.8528 99.174 43.3196 98.7609C43.6038 98.5092 43.8572 98.2242 44.1408 97.9724C44.3996 97.7417 44.685 97.5382 44.9456 97.313C45.7462 96.6283 45.5225 96.0668 45.8895 95.2468C46.0921 94.7933 46.4972 94.2203 46.7506 93.759C47.3487 92.6702 47.7769 91.4965 48.0204 90.2787C48.1096 89.8857 48.1744 89.4877 48.2145 89.0868C48.295 89.1622 48.3536 89.565 48.3911 89.6966C48.5447 90.2358 48.7817 90.7714 48.8966 91.319C48.9571 91.6209 48.9239 91.9373 48.9644 92.241C49.0563 92.9372 49.3042 93.6721 49.2921 94.3731C49.2855 94.7468 49.1947 95.1218 49.1264 95.4883C49.0351 95.9792 48.9251 96.5365 48.8906 97.0878C48.8716 97.3585 48.8773 97.6303 48.9075 97.8999C48.8688 98.2423 48.8471 98.6812 48.9281 99.0556C48.858 99.1019 48.8071 99.1721 48.7848 99.253ZM72.9208 103.308C71.9594 103.155 70.9925 102.996 70.0183 102.96C69.2999 102.934 68.578 102.983 67.8614 103.021C67.7667 102.851 67.6353 102.705 67.4768 102.593C67.143 102.37 66.7748 102.424 66.4041 102.492C66.3671 102.396 66.319 102.306 66.2608 102.221C66.2089 102.15 66.1433 102.089 66.0679 102.043C65.9925 101.997 65.9086 101.966 65.8212 101.953C65.5999 101.922 65.3979 102.013 65.2201 102.139C64.9438 101.85 64.7267 101.72 64.3198 101.787C64.2137 101.814 64.1044 101.826 63.995 101.823C63.5282 101.768 63.3903 100.732 63.1176 100.402C62.8806 100.113 62.5486 100.052 62.1967 100.021C62.1471 99.6811 62.0903 99.3792 61.9264 99.0785C61.9355 98.9656 61.947 98.8249 61.9591 98.68C62.4077 97.755 62.311 96.7159 62.1368 95.6664C62.0389 95.0789 61.9179 94.5083 61.9833 93.9094C62.0383 93.4088 62.1616 92.9167 62.2336 92.418C62.2941 92.0176 62.2796 91.5968 62.3836 91.2055C62.4652 90.8945 62.5982 90.5896 62.7089 90.2877C62.8387 89.9371 62.9513 89.5811 63.0469 89.2196C63.114 89.4213 63.1074 89.7226 63.1358 89.9387C63.1904 90.4237 63.2917 90.9023 63.4381 91.3679C63.7673 92.3454 64.2267 93.2742 64.8041 94.1291C65.0037 94.431 65.2528 94.6961 65.4342 95.0083C65.742 95.5366 65.5551 96.1326 65.8133 96.6543C65.9947 97.0166 66.3872 97.3185 66.6635 97.6149C67.1213 98.1022 67.5548 98.6112 68.0337 99.0785C68.7219 99.75 69.4965 100.303 70.3062 100.817C71.1787 101.371 72.0737 101.888 72.9468 102.441C73.3435 102.692 73.7571 102.936 74.1229 103.229C74.3275 103.403 74.5228 103.588 74.7077 103.782C74.1066 103.606 73.5358 103.43 72.9202 103.308H72.9208Z" fill="#00312B"/>
</svg>
