<svg width="49" height="64" viewBox="0 0 49 64" fill="none" xmlns="http://www.w3.org/2000/svg">
<g clip-path="url(#clip0_524_5559)">
<path d="M24.9638 9.78872C36.5642 9.78872 46.3085 17.1299 49.0926 27.9534V2.16519C49.0926 1.12989 48.2573 0.376953 47.3293 0.376953H2.50545C1.48461 0.376953 0.742188 1.22401 0.742188 2.16519V28.5181C3.24787 17.3181 13.1778 9.78872 24.9638 9.78872Z" fill="#1467BD"/>
<path d="M48.8142 41.5059L39.3483 29.553L35.3577 34.6353L25.5206 21.7412L12.7138 35.5765L8.35204 31.9059L0.927794 41.1294L0.742188 41.4118V62.1177C0.742188 63.153 1.57741 63.9059 2.50545 63.9059H47.2365C48.2573 63.9059 48.9998 63.0589 48.9998 62.1177V41.8824L48.8142 41.5059Z" fill="#228B22"/>
<path d="M6.30682 51.106V52.8943C6.30682 53.3649 6.39962 53.6472 6.49242 53.8355C6.67803 54.0237 6.95644 54.1178 7.42045 54.1178V54.8707H2.6875V54.1178H2.87311C3.33712 54.1178 3.61553 54.0237 3.80114 53.8355C3.89394 53.6472 3.98674 53.3649 3.98674 52.9884V47.4355C3.98674 46.9649 3.89394 46.6825 3.80114 46.5884C3.61553 46.4002 3.33712 46.306 2.87311 46.306H2.6875V45.5531H7.60606V46.306H7.42045C6.95644 46.306 6.67803 46.4002 6.49242 46.5884C6.39962 46.7766 6.30682 47.059 6.30682 47.4355V50.0708L8.8125 47.7178C9.27651 47.3413 9.46212 46.9649 9.46212 46.6825C9.46212 46.4002 9.18371 46.2119 8.62689 46.2119V45.459H12.7102V46.2119C12.339 46.2119 11.9678 46.306 11.5038 46.4943C11.1326 46.6825 10.483 47.1531 9.74053 47.8119L8.9053 48.5649L11.411 52.4237C11.875 53.0825 12.1534 53.459 12.4318 53.6472C12.7102 53.8355 13.0814 53.9296 13.5455 53.9296V54.6825H8.44129V53.9296C9.09091 53.9296 9.46212 53.8355 9.46212 53.5531C9.46212 53.459 9.27651 53.1766 8.99811 52.8002L7.23485 50.1649L6.30682 51.106Z" fill="white"/>
<path d="M19.0237 50.3533V52.7063C19.0237 53.1769 19.0237 53.4592 19.1165 53.5533C19.2093 53.6475 19.3021 53.8357 19.4877 53.9298C19.6733 54.0239 20.0445 54.0239 20.5085 54.0239C21.0653 54.0239 21.5294 53.9298 21.8078 53.8357C22.0862 53.6475 22.3646 53.4592 22.5502 53.0828C22.7358 52.7063 22.9214 52.3298 23.0142 51.8592H23.7566L23.6638 54.9651H15.2188V54.2122H15.4044C15.8684 54.2122 16.1468 54.118 16.3324 53.9298C16.4252 53.7416 16.518 53.4592 16.518 53.0828V47.5298C16.518 47.0592 16.4252 46.7769 16.3324 46.6828C16.1468 46.4945 15.8684 46.4004 15.4044 46.4004H15.2188V45.6475H23.1998L23.2926 48.0945H22.5502C22.4574 47.718 22.2718 47.3416 22.0862 47.0592C21.9006 46.7769 21.715 46.6828 21.6222 46.5886C21.4366 46.4945 21.1581 46.4945 20.7869 46.4945H19.0237V49.6945H19.8589C20.2301 49.6945 20.5085 49.6004 20.6941 49.5063C20.7869 49.318 20.8797 49.0357 20.8797 48.5651H21.6222V51.7651H20.8797C20.8797 51.671 20.8797 51.671 20.8797 51.671C20.8797 51.3886 20.7869 51.2004 20.6941 50.918C20.6013 50.7298 20.3229 50.6357 19.8589 50.6357L19.0237 50.3533Z" fill="white"/>
<path d="M30.4377 50.3533V52.7063C30.4377 53.1769 30.4377 53.4592 30.5305 53.5533C30.6233 53.6475 30.7161 53.8357 30.9018 53.9298C31.0874 54.0239 31.4586 54.0239 31.9226 54.0239C32.4794 54.0239 32.9434 53.9298 33.2218 53.8357C33.5002 53.6475 33.7786 53.4592 33.9642 53.0828C34.1499 52.7063 34.3355 52.3298 34.4283 51.8592H35.1707L35.0779 54.9651H26.6328V54.2122H26.9112C27.3752 54.2122 27.6536 54.118 27.8393 53.9298C27.9321 53.7416 28.0249 53.4592 28.0249 53.0828V47.5298C28.0249 47.0592 27.9321 46.7769 27.8393 46.6828C27.6536 46.4945 27.3752 46.4004 26.9112 46.4004H26.7256V45.6475H34.5211L34.6139 48.0945H33.8714C33.7786 47.718 33.593 47.3416 33.4074 47.0592C33.2218 46.7769 33.0362 46.6828 32.9434 46.5886C32.7578 46.4945 32.4794 46.4945 32.1082 46.4945H30.3449V49.6945H31.1802C31.5514 49.6945 31.8298 49.6004 32.0154 49.5063C32.201 49.4122 32.201 49.0357 32.201 48.5651H32.9434V51.7651H32.201C32.201 51.671 32.201 51.671 32.201 51.671C32.201 51.3886 32.1082 51.2004 32.0154 50.918C31.9226 50.6357 31.6442 50.6357 31.1802 50.6357L30.4377 50.3533Z" fill="white"/>
<path d="M41.6662 50.6358V52.8946C41.6662 53.3652 41.759 53.6476 41.8518 53.7417C42.0374 53.9299 42.3158 54.0241 42.7798 54.0241H42.9654V54.777H38.0469V54.0241H38.2325C38.6965 54.0241 38.9749 53.9299 39.1605 53.7417C39.2533 53.5535 39.3461 53.2711 39.3461 52.8946V47.3417C39.3461 46.8711 39.2533 46.5888 39.1605 46.4946C38.9749 46.3064 38.6965 46.2123 38.2325 46.2123H38.0469V45.4594L41.759 45.3652C42.687 45.3652 43.4294 45.3652 43.8935 45.4594C44.3575 45.5535 44.9143 45.6476 45.2855 45.8358C45.7495 46.0241 46.0279 46.4005 46.2135 46.777C46.3991 47.1535 46.4919 47.5299 46.4919 48.0005C46.4919 48.5652 46.3063 49.1299 45.9351 49.6005C45.5639 50.0711 45.0999 50.3535 44.5431 50.4476C43.9863 50.5417 43.2438 50.6358 42.3158 50.6358H41.6662ZM41.6662 49.8829H42.1302C42.8726 49.8829 43.3366 49.6946 43.6151 49.4123C43.8935 49.1299 43.9863 48.6594 43.9863 48.0946C43.9863 47.6241 43.8935 47.2476 43.7079 46.9652C43.5223 46.6829 43.3366 46.4946 43.0582 46.4005C42.7798 46.3064 42.3158 46.3064 41.759 46.3064C41.6662 46.2123 41.6662 49.8829 41.6662 49.8829Z" fill="white"/>
</g>
<defs>
<clipPath id="clip0_524_5559">
<rect width="49" height="64" fill="white"/>
</clipPath>
</defs>
</svg>
