<svg width="20" height="20" viewBox="0 0 20 20" fill="none" xmlns="http://www.w3.org/2000/svg">
<path fill-rule="evenodd" clip-rule="evenodd" d="M9.99974 3.33398C13.262 3.33396 16.4537 5.4213 18.5225 9.44649C18.7001 9.79208 18.7001 10.2091 18.5225 10.5547C16.4537 14.5799 13.262 16.6672 9.99975 16.6673C6.73747 16.6673 3.54581 14.5799 1.47697 10.5548C1.29934 10.2092 1.29934 9.79218 1.47697 9.44658C3.54581 5.4214 6.73746 3.33401 9.99974 3.33398ZM7.2914 10.0007C7.2914 8.50488 8.50396 7.29232 9.99973 7.29232C11.4955 7.29232 12.7081 8.50488 12.7081 10.0007C12.7081 11.4964 11.4955 12.709 9.99973 12.709C8.50396 12.709 7.2914 11.4964 7.2914 10.0007Z" stroke="white" stroke-linecap="round" stroke-linejoin="round"/>
</svg>
