<svg width="20" height="20" viewBox="0 0 20 20" fill="none" xmlns="http://www.w3.org/2000/svg">
<path d="M16.0403 6.20018L10.7748 2.43052C10.4956 2.23062 10.356 2.13067 10.2037 2.09201C10.0691 2.05787 9.92823 2.05787 9.7937 2.09201C9.64138 2.13067 9.50176 2.23062 9.22253 2.43052L3.95701 6.2002M16.0403 6.20018L17.9153 7.54252M16.0403 6.20018V15.5415C16.0403 16.0082 16.0403 16.2416 15.9495 16.4199C15.8696 16.5767 15.7421 16.7041 15.5853 16.784C15.4071 16.8749 15.1737 16.8749 14.707 16.8749H5.29034C4.82363 16.8749 4.59028 16.8749 4.41202 16.784C4.25522 16.7041 4.12773 16.5767 4.04784 16.4199C3.95701 16.2416 3.95701 16.0082 3.95701 15.5415V6.2002M3.95701 6.2002L2.08203 7.54252" stroke="#557571" stroke-width="1.5" stroke-linecap="round" stroke-linejoin="round"/>
</svg>
