<svg width="222" height="52" viewBox="0 0 222 52" fill="none" xmlns="http://www.w3.org/2000/svg">
<path d="M0 14.9652C0 13.6269 0.659851 12.3747 1.76374 11.6181L17.6774 0.710747C19.06 -0.236916 20.883 -0.236915 22.2656 0.710747L38.1793 11.6181C39.2831 12.3747 39.943 13.6269 39.943 14.9652V37.0132C39.943 38.3502 39.2844 39.6013 38.1823 40.3582L22.2687 51.2871C20.8847 52.2376 19.0583 52.2376 17.6743 51.2871L1.76065 40.3582C0.658555 39.6013 0 38.3502 0 37.0132V14.9652Z" fill="#C9F3FF"/>
<path d="M19.9791 6.91635C16.356 6.91635 13.4189 9.8565 13.4189 13.4834C13.4189 14.5618 13.6785 15.5796 14.1388 16.4774C14.2175 16.466 14.2981 16.4636 14.3792 16.471L14.7272 16.5026L19.1826 11.1619L19.1921 11.1507C19.5944 10.6819 20.3174 10.6717 20.7327 11.129L20.7425 11.14L25.6815 16.7323C26.2274 15.7743 26.5393 14.6653 26.5393 13.4834C26.5393 9.8565 23.6022 6.91635 19.9791 6.91635Z" fill="#E9A715"/>
<path fill-rule="evenodd" clip-rule="evenodd" d="M33.5423 25.6747C33.7249 25.8683 34.0281 25.6255 33.8791 25.4051L32.0059 22.6337C31.9994 22.6241 31.9922 22.6151 31.9843 22.6067L31.8514 22.4651C31.8157 22.4271 31.7949 22.3776 31.7929 22.3255L31.6914 19.7452C31.6899 19.7072 31.6784 19.6702 31.658 19.638L30.1161 17.2016C30.0403 17.0818 29.8718 17.066 29.7751 17.1696L27.7547 19.3342C27.6838 19.4101 27.6769 19.5258 27.7383 19.6097L29.2706 21.7034C29.2819 21.7188 29.2951 21.7326 29.3099 21.7445C29.32 21.7525 29.3308 21.7597 29.3422 21.7658L30.4374 22.3591C30.4613 22.372 30.4825 22.3894 30.5 22.4101L30.7977 22.7643L33.5423 25.6747ZM10.4661 23.1482C10.3808 23.2032 10.3452 23.3101 10.3805 23.4053L12.2653 28.4865C12.2904 28.5541 12.3475 28.6048 12.4177 28.6217L15.8653 29.4494C15.8846 29.454 15.9044 29.4559 15.9242 29.4552C15.9366 29.4547 15.949 29.4531 15.9613 29.4505L20.5477 28.4646C20.5904 28.4554 20.6293 28.4336 20.6593 28.4019L23.0247 25.9075C23.1018 25.8261 23.1041 25.6994 23.03 25.6153L22.1967 24.6711C22.1919 24.6655 22.1873 24.6598 22.183 24.6538C22.1796 24.6491 22.1764 24.6442 22.1735 24.6393L21.7888 23.9986C21.783 23.9889 21.778 23.9788 21.7738 23.9684C21.7672 23.9521 21.7626 23.9351 21.7601 23.9177L21.6326 23.0227C21.6294 23.0002 21.6227 22.9784 21.6126 22.958L20.1496 19.9746C20.1352 19.9454 20.1277 19.9133 20.1275 19.8807L20.1048 16.2375C20.1035 16.0337 19.8471 15.9444 19.7196 16.1034L17.8272 18.4623C17.6599 18.6709 17.3372 18.45 17.4711 18.2185L19.8934 14.0306C19.9201 13.9844 19.9288 13.9299 19.9178 13.8776L19.8061 13.3479C19.7686 13.17 19.5418 13.1148 19.4268 13.2556L15.4285 18.1475C15.3951 18.1883 15.348 18.2156 15.2959 18.2241L14.1088 18.4184C14.0492 18.4281 13.9964 18.4624 13.9631 18.5128L12.9059 20.1165L10.9786 22.7999C10.9627 22.8219 10.9429 22.8408 10.9201 22.8555L10.4661 23.1482ZM4.44216 28.0357C4.43291 28.0491 4.42218 28.0615 4.41024 28.0725C4.39576 28.0857 4.37954 28.097 4.3619 28.106L0.535343 30.0531C0.462164 30.0904 0.374244 30.083 0.308303 30.0341L0 29.8057V30.6138H39.943V26.685L39.6851 26.4831C39.6496 26.4553 39.6063 26.4393 39.5613 26.4372L38.6988 26.3988C38.6232 26.3954 38.5549 26.3528 38.5186 26.2865L36.6576 22.8857C36.5315 22.6552 36.848 22.4414 37.0148 22.6445L39.0507 25.1244C39.108 25.1942 39.2025 25.2211 39.2879 25.1919L39.3992 25.1539C39.4815 25.1258 39.5726 25.1496 39.6305 25.2144L39.943 25.5638V23.3071C39.9249 23.3038 39.9062 23.3027 39.8874 23.3041L39.029 23.3683C38.9572 23.3737 38.8875 23.343 38.8429 23.2865L36.2826 20.0398C36.2428 19.9893 36.1826 19.9592 36.1184 19.9574L34.2433 19.9072C34.192 19.9058 34.1429 19.8863 34.1047 19.8521L29.8061 16.0025C29.7132 15.9193 29.5695 15.9316 29.4921 16.0293L27.0451 19.1181C26.9614 19.2238 26.8025 19.228 26.7133 19.127L25.2184 17.4343L20.1334 11.6766C20.0456 11.5772 19.89 11.5794 19.805 11.6812L15.1496 17.2616C15.104 17.3162 15.0346 17.345 14.9638 17.3385L14.6465 17.3097L14.305 17.2786C14.2306 17.2719 14.1581 17.3039 14.1129 17.3634L10.2319 22.4802C10.1585 22.5769 10.0198 22.5944 9.92472 22.5188L6.58881 19.8658C6.49968 19.7949 6.37081 19.8052 6.29409 19.8895L3.14406 23.3493C3.0825 23.4169 2.98523 23.4385 2.90085 23.4034L2.17445 23.1011C2.0935 23.0675 2.00025 23.0859 1.93827 23.1479L0.778657 24.3074C0.683604 24.4024 0.525886 24.3887 0.448585 24.2788L0 23.6411V27.0371L0.743573 25.1635C0.753613 25.1383 0.768248 25.1152 0.786794 25.0954L1.762 24.0542C1.81421 23.9985 1.89193 23.9744 1.96654 23.9908L3.11336 24.2437C3.18876 24.2603 3.26727 24.2355 3.31948 24.1786L5.74886 21.5294C5.89829 21.3664 6.16712 21.506 6.11973 21.722L5.98948 22.3162C5.95229 22.4858 6.11989 22.6279 6.28114 22.5635L6.41059 22.5118C6.56002 22.4521 6.72001 22.5706 6.70653 22.731L6.51865 24.9629C6.51553 25.0003 6.50264 25.0363 6.4814 25.0673L4.44216 28.0357Z" fill="#007C9D"/>
<path d="M39.4362 26.0069V31.6508C39.4364 32.2712 39.2949 32.8834 39.0225 33.4408C37.1252 32.8041 35.2733 32.1427 33.2447 32.1422C28.8457 32.1422 24.4438 31.095 20.2367 30.1341C19.393 29.9412 18.6004 29.6722 17.8213 29.4045C18.5985 29.1278 19.6032 28.9924 20.1316 28.7792C20.9308 28.4572 21.6721 28.3132 22.4973 28.1165C24.1485 27.723 25.7378 27.1393 27.3856 26.731C28.9694 26.3386 30.3697 26.0013 32.0189 26.0013C33.4479 26.0013 34.784 26.1948 36.1712 26.3034C37.318 26.3922 38.3758 26.1899 39.4362 26.0069Z" fill="#B8D120"/>
<path d="M39.2741 32.9132C38.921 33.6355 39.6165 38.128 38.9516 38.5807L36.7582 41.029C36.3016 40.8504 34.3186 42.4748 33.8906 42.3545C32.9498 42.0904 32.3032 41.1578 31.3409 41.029C29.5927 40.7947 27.761 43.4346 25.9169 43.4705C24.0979 43.5057 22.588 42.1787 20.8175 42.598C19.1287 42.9982 17.5855 42.9025 15.9548 43.4705C13.7035 44.2539 9.89886 42.6837 7.60236 43.2879L1.22264 39.3517C0.59897 38.927 1.03851 34.459 0.68585 33.7924C0.333192 33.1258 0.685715 31.5038 0.685854 30.7498V28.9433C1.80177 28.7076 2.85968 28.0224 3.97464 27.7922C5.53203 27.4709 7.07931 27.387 8.64758 27.1671C10.9655 26.8431 12.8745 27.517 14.8604 28.1989C15.7456 28.5029 16.6463 28.8088 17.605 29.0274C22.3856 30.1186 27.3869 31.3071 32.3861 31.3079C34.6913 31.3077 37.1176 32.1901 39.2741 32.9132Z" fill="#628237"/>
<path d="M35.5744 37.8029C28.3649 39.2232 16.7864 40.7516 9.88803 37.8029C6.5937 36.3947 3.51787 37.8374 1.19858 39.8918C1.37009 40.0622 1.55803 40.2183 1.76097 40.3577L17.6746 51.2866C19.0586 52.2371 20.8851 52.2371 22.2691 51.2866L38.1827 40.3577C38.9006 39.8647 39.4303 39.1619 39.7124 38.3622C38.5 37.7556 37.1196 37.4985 35.5744 37.8029Z" fill="#00312B"/>
<path d="M38.8609 37.0132V14.9652C38.8609 13.9838 38.377 13.0655 37.5675 12.5106L21.6539 1.60331C20.6399 0.90836 19.3031 0.908359 18.2891 1.60331L2.37551 12.5106C1.56599 13.0655 1.0821 13.9838 1.0821 14.9652V37.0132C1.0821 37.9936 1.56504 38.9112 2.37325 39.4662L18.2869 50.3951C19.3018 51.0921 20.6412 51.0921 21.6561 50.3951L22.2687 51.2871C20.8847 52.2376 19.0583 52.2376 17.6743 51.2871L1.76066 40.3582C1.5577 40.2188 1.36976 40.0627 1.19823 39.8923C0.438328 39.1376 0 38.1039 0 37.0132V29.8058V27.0373V14.9652C0 13.6374 0.649585 12.3942 1.73795 11.6359L1.76373 11.6181L17.6774 0.710747C19.06 -0.236916 20.883 -0.236916 22.2656 0.710747L38.1793 11.618C39.2831 12.3747 39.943 13.6269 39.943 14.9652L39.943 23.3073V25.564V26.6852V30.614L39.943 37.0132C39.943 37.4792 39.863 37.9348 39.712 38.3627C39.43 39.1623 38.9003 39.8652 38.1823 40.3582L22.2687 51.2871L21.6561 50.3951L37.5697 39.4662C38.378 38.9112 38.8609 37.9936 38.8609 37.0132Z" fill="#00312B"/>
<path fill-rule="evenodd" clip-rule="evenodd" d="M29.4867 37.1557C29.4423 37.1208 29.3822 37.1204 29.3289 37.1288C29.259 37.1438 29.1901 37.163 29.1226 37.1864C29.0142 37.2182 28.9019 37.2479 28.7908 37.273C28.9233 37.0073 28.9337 36.9233 28.8357 36.637C28.8242 36.6033 28.801 36.5435 28.7691 36.5231C28.7448 36.5109 28.7166 36.5087 28.6906 36.5171C28.6771 36.523 28.6651 36.5319 28.6555 36.5432C28.646 36.5544 28.6391 36.5677 28.6356 36.582C28.5796 36.7522 28.685 36.8549 28.5705 37.0457C28.5443 37.093 28.5061 37.1328 28.4597 37.1609C28.4343 37.1753 28.406 37.1843 28.3769 37.1873C28.3478 37.1902 28.3183 37.1869 28.2905 37.1777C28.1808 37.1427 28.0555 37.0218 28.0052 36.9179C27.9885 36.8873 27.9784 36.8536 27.9754 36.8189C27.9724 36.7842 27.9766 36.7493 27.9878 36.7163C28.0145 36.6496 28.0667 36.6206 28.1305 36.595C28.2823 36.534 28.494 36.4512 28.5672 36.2893C28.5889 36.2403 28.6 36.165 28.577 36.1145C28.5726 36.103 28.5656 36.0925 28.5566 36.084C28.5476 36.0755 28.5368 36.0691 28.525 36.0654C28.4319 36.0355 28.2931 36.1388 28.1947 36.152C28.0552 36.1719 27.9013 36.1477 27.761 36.1431C27.5645 36.1368 27.3695 36.1793 27.1811 36.2297C27.0258 36.1882 26.8964 36.0645 26.7769 35.9612C26.6034 35.8109 26.4214 35.6581 26.2766 35.4798C26.1922 35.3759 26.1204 35.2609 26.0465 35.1496C25.8433 34.8447 25.652 34.5216 25.415 34.2414C25.3484 34.1611 25.2759 34.0857 25.1982 34.016C25.0641 33.8947 24.8852 33.7741 24.7948 33.615C24.5779 33.2321 24.5005 32.6899 24.3645 32.2687C24.2921 32.0442 24.136 31.7332 24.1056 31.5108C24.0894 31.3924 24.1308 31.2536 24.1455 31.1356C24.1536 31.0515 24.1568 30.9671 24.1551 30.8826C24.1588 30.1107 23.876 29.1564 23.0541 28.9099C22.8517 28.8493 22.644 28.8393 22.4469 28.7584C22.2678 28.6856 22.0565 28.5035 21.8702 28.3998C21.659 28.2811 21.4222 28.201 21.2197 28.0693C21.1524 28.0292 21.0956 27.9738 21.054 27.9076C20.9772 27.7744 20.9471 27.2536 20.9889 27.1122C21.0117 27.034 21.0527 26.9606 21.0857 26.8853C21.1329 26.776 21.1638 26.6603 21.1774 26.5421C21.2424 26.5347 21.3238 26.5366 21.3689 26.4808C21.4426 26.3892 21.5456 26.0187 21.564 25.8931C21.5761 25.8114 21.5769 25.7285 21.5664 25.6466C21.5597 25.5966 21.5471 25.5319 21.5029 25.5003C21.4928 25.4931 21.4812 25.4882 21.4691 25.4858C21.4801 25.3905 21.4942 25.2978 21.5124 25.1926C21.5239 25.1263 21.4806 25.0596 21.4866 24.9918C21.4962 24.921 21.5095 24.8506 21.5263 24.7811C21.539 24.8332 21.5491 24.8859 21.5565 24.939C21.561 24.8625 21.5549 24.7858 21.5382 24.711C21.5483 24.6455 21.5483 24.5788 21.5382 24.5133C21.5183 24.389 21.4387 24.1872 21.3888 24.0243C21.4725 24.1713 21.4947 24.204 21.5333 24.369C21.478 23.9925 21.5304 23.8608 21.2032 23.6794L21.3283 23.6239C21.2496 23.6374 21.1696 23.6422 21.0898 23.6382C21.1663 23.6001 21.1867 23.5475 21.1414 23.4373C21.106 23.6713 20.6038 23.3903 20.4609 23.329C20.2414 23.2482 20.081 23.2051 19.8862 23.0741L19.9556 23.185C19.8526 23.1558 19.7784 23.1441 19.7238 23.0254C19.7021 23.1566 19.7643 23.1986 19.8372 23.2636C19.67 23.292 19.3829 23.332 19.2133 23.1631C19.233 23.2809 19.2374 23.2714 19.2933 23.3716C19.0734 23.4583 18.9223 23.5029 18.7959 23.7707C18.8594 23.7326 18.9273 23.6841 19.0175 23.696C18.8386 23.9438 18.6074 24.0473 18.4753 24.2956C18.543 24.2224 18.5924 24.1874 18.6584 24.1774C18.616 24.2447 18.579 24.3153 18.5476 24.3883L18.6712 24.3234C18.5651 24.8246 18.5762 24.8513 18.6146 25.3502C18.646 25.3727 18.6721 25.4018 18.6911 25.4355C18.6911 25.4433 18.6911 25.4513 18.6911 25.4593C18.6595 25.4251 18.6304 25.3879 18.5812 25.3814C18.5688 25.3794 18.5562 25.3804 18.5442 25.3841C18.5323 25.3879 18.5214 25.3944 18.5124 25.403C18.4389 25.4749 18.4619 25.7597 18.4719 25.861C18.4816 25.9585 18.5224 26.0473 18.5497 26.1401C18.5699 26.2088 18.5794 26.2828 18.6068 26.3489C18.6194 26.3854 18.6406 26.4184 18.6686 26.445C18.6783 26.4531 18.69 26.4587 18.7024 26.4612C18.7149 26.4637 18.7278 26.463 18.7399 26.4593C18.7611 26.4544 18.7818 26.4476 18.8017 26.439C18.8147 26.5506 18.8334 26.6616 18.8577 26.7714C18.8822 26.869 18.9249 26.968 18.937 27.068C18.9557 27.2246 18.9331 27.6657 18.895 27.8147C18.8816 27.8653 18.858 27.9127 18.8256 27.9539C18.6954 28.1235 18.4096 28.2207 18.2184 28.3138C18.1116 28.3636 18.0081 28.42 17.9083 28.4825C17.7764 28.5691 17.6493 28.6726 17.5036 28.7339C17.2197 28.853 16.8964 28.8508 16.6199 28.9853C16.6026 28.9935 16.5852 29.0024 16.5683 29.0117C16.5514 29.021 16.5349 29.031 16.5184 29.0416C16.5019 29.0522 16.4863 29.0633 16.4707 29.0743C16.4551 29.0853 16.4397 29.0977 16.425 29.11C16.4102 29.1224 16.3955 29.1354 16.3816 29.1486C16.3677 29.1618 16.3538 29.1756 16.3406 29.1899C16.3274 29.2042 16.3148 29.2185 16.3024 29.2332C16.2901 29.248 16.2784 29.2636 16.2671 29.2794C16.1641 29.4225 16.109 29.5916 16.0548 29.7575C15.9136 30.1906 15.8253 30.602 15.8759 31.0596C15.8902 31.188 15.9335 31.3567 15.908 31.4809C15.8726 31.6525 15.7071 31.8244 15.641 31.9959C15.4241 32.5552 15.4918 33.0442 15.0921 33.5398C14.9913 33.665 14.8664 33.7425 14.7419 33.8406C14.6492 33.915 14.5638 33.9979 14.4867 34.0883C14.2839 34.3229 14.118 34.584 13.9372 34.8356C13.675 35.2022 13.3534 35.5853 12.983 35.8473C12.8559 35.9374 12.7119 36.0268 12.5538 36.0448C12.3881 36.0639 12.2682 35.9859 12.1114 35.9647C12.0292 35.9534 11.9518 35.9766 11.8729 35.9939C11.6426 36.0442 11.4943 35.937 11.2965 35.8447C11.2531 35.8241 11.2097 35.8014 11.1701 35.8432C11.1582 35.8579 11.1496 35.8751 11.1451 35.8934C11.1405 35.9118 11.14 35.9309 11.1436 35.9495C11.1575 36.06 11.2303 36.1555 11.3171 36.2198C11.3329 36.2312 11.3492 36.2414 11.3659 36.252C11.3826 36.2626 11.4001 36.2709 11.4177 36.2793C11.4353 36.2878 11.4535 36.2949 11.4719 36.301C11.4903 36.307 11.5092 36.3131 11.5281 36.3179C11.6159 36.3395 11.8193 36.3241 11.8393 36.437C11.8547 36.5236 11.777 36.6503 11.7248 36.7172C11.633 36.8347 11.5055 36.9393 11.3928 37.0366C11.2917 36.9703 11.2154 36.9034 11.1521 36.7995C11.1557 36.7085 11.2004 36.514 11.1262 36.4482C11.1129 36.4375 11.0972 36.4301 11.0804 36.4265C11.0637 36.4229 11.0463 36.4233 11.0298 36.4276C10.9771 36.4428 10.9367 36.5218 10.9183 36.5688C10.8619 36.7133 10.8777 36.882 10.9417 37.0201C10.9597 37.0591 10.9868 37.1013 10.9894 37.1446L10.9827 37.1576C10.9715 37.1597 10.96 37.1597 10.9489 37.1576L10.9558 37.1431L10.9463 37.1563C10.8292 37.0972 10.5858 36.8365 10.467 36.8692C10.4548 36.8717 10.4434 36.8768 10.4334 36.8843C10.4235 36.8918 10.4154 36.9014 10.4097 36.9125C10.4024 36.9327 10.3993 36.9542 10.4009 36.9756C10.4025 36.997 10.4086 37.0179 10.4189 37.0368C10.4668 37.1366 10.5891 37.2141 10.6836 37.2667C10.6555 37.2856 10.6214 37.3044 10.6108 37.3391C10.607 37.3507 10.6058 37.3631 10.6075 37.3752C10.6091 37.3874 10.6134 37.399 10.6201 37.4092C10.7068 37.5478 11.2273 37.6593 11.3978 37.6847C11.5723 37.7107 11.6333 37.6243 11.758 37.623C11.8256 37.623 11.9074 37.6489 11.9733 37.6648C12.1008 37.623 12.1975 37.5327 12.3237 37.4894C12.3357 37.4855 12.3474 37.4809 12.3591 37.4768C12.1945 37.7654 12.1748 38.0682 12.2641 38.3863C12.3331 38.6327 12.489 38.8592 12.7152 38.9859C12.8566 39.0651 13.0075 39.0508 13.1521 39.1069C13.2736 39.1544 13.3768 39.2457 13.493 39.3055C13.8129 39.4701 14.1738 39.5617 14.5283 39.613C14.3041 39.7182 14.0363 39.7921 13.9452 40.0537C13.9402 40.0682 13.9363 40.0829 13.9326 40.097L13.9736 40.2126C13.9302 40.2847 13.8901 40.3568 13.9085 40.4443C13.9222 40.4965 13.9514 40.5433 13.9925 40.5783C14.3466 40.6912 14.5051 40.4623 14.802 40.4588C14.9826 40.4569 15.1665 40.4889 15.3454 40.5125C15.6126 40.5476 15.88 40.5829 16.1493 40.5963C16.6568 40.6214 17.1653 40.5701 17.6684 40.5084C18.1351 40.4518 18.5992 40.3796 19.0609 40.2918C19.3405 40.2451 19.619 40.1926 19.8964 40.1344C20.0896 40.095 20.3139 40.0261 20.5084 40.0261C20.7422 40.0246 21.0887 40.098 21.3355 40.1242C21.795 40.1732 22.256 40.2018 22.716 40.2427C22.9248 40.2613 23.1326 40.2942 23.3414 40.3103C23.5372 40.3236 23.7337 40.3212 23.9291 40.3029C24.0794 40.2903 24.2297 40.2698 24.3808 40.2743C24.5252 40.2786 24.6076 40.3328 24.7386 40.357C24.8904 40.3854 25.2311 40.3698 25.3274 40.2282C25.3367 40.216 25.3433 40.202 25.3468 40.187C25.3503 40.1721 25.3505 40.1566 25.3476 40.1416C25.3419 40.1251 25.3347 40.1093 25.3259 40.0944C25.3241 40.0909 25.3226 40.0872 25.3211 40.0837C25.531 40.0261 25.7579 40.0112 25.9602 39.9337C26.177 39.851 26.3399 39.6738 26.5416 39.5645C26.6949 39.4809 26.864 39.4458 27.0286 39.3932C27.2837 39.3116 27.5203 39.1056 27.651 38.8735C27.7926 38.6223 27.7942 38.3046 27.7161 38.0329C27.684 37.9333 27.6436 37.8366 27.5953 37.7438C27.7182 37.7936 27.846 37.8224 27.9728 37.8599C28.0392 37.8796 28.1075 37.9084 28.1749 37.9224C28.1934 37.9261 28.2121 37.9283 28.2309 37.9289C28.2497 37.9295 28.2685 37.9285 28.2871 37.9259C28.379 37.9142 28.4606 37.8609 28.5514 37.8473C28.6479 37.8334 28.7466 37.8573 28.8401 37.8194C28.9086 37.7916 29.3438 37.4512 29.3707 37.3945C29.3775 37.3766 29.3824 37.3581 29.3855 37.3393C29.431 37.3077 29.5245 37.2854 29.5266 37.2206C29.5224 37.1946 29.508 37.1713 29.4867 37.1557ZM21.4094 25.3758C21.4114 25.4167 21.4144 25.4537 21.4185 25.4897H21.4164C21.407 25.4924 21.3978 25.4961 21.389 25.5005C21.3951 25.4578 21.4014 25.4162 21.4096 25.3773L21.4094 25.3758ZM17.4945 35.5946C17.4477 35.7159 17.4479 35.8843 17.3362 35.9703C17.2978 35.9998 17.2334 36.0136 17.2046 36.0524C17.1631 36.1093 17.1892 36.2174 17.2011 36.2817C16.9612 36.4198 16.8541 36.3629 16.6093 36.3683C16.4744 36.3718 16.4072 36.424 16.3189 36.5171C16.148 36.5411 15.9735 36.6321 15.8006 36.6288C15.6085 36.6251 15.4484 36.5273 15.2387 36.5452C15.06 36.5604 14.9135 36.6444 14.7428 36.6795C14.661 36.6964 14.5608 36.6845 14.4763 36.6881C14.041 36.7245 13.59 36.7548 13.1714 36.8893C13.467 36.5933 13.8311 36.43 14.1974 36.2429C14.4628 36.1074 14.7319 35.9668 14.985 35.8099C15.1743 35.6918 15.3671 35.5662 15.5345 35.4181C15.6365 35.3278 15.7273 35.2256 15.829 35.1353C15.9218 35.0526 16.0242 34.9796 16.1177 34.8989C16.4048 34.6533 16.3245 34.4519 16.4562 34.1578C16.5288 33.9952 16.6741 33.7897 16.765 33.6243C16.9795 33.2338 17.1331 32.8129 17.2204 32.3761C17.2523 32.2352 17.2756 32.0925 17.29 31.9487C17.3188 31.9757 17.3399 32.1202 17.3533 32.1674C17.4084 32.3608 17.4934 32.5528 17.5346 32.7492C17.5563 32.8575 17.5444 32.971 17.5589 33.0799C17.5919 33.3296 17.6808 33.5931 17.6764 33.8445C17.6741 33.9786 17.6415 34.113 17.617 34.2445C17.5843 34.4205 17.5448 34.6204 17.5324 34.8181C17.5256 34.9152 17.5277 35.0126 17.5385 35.1093C17.5246 35.2321 17.5168 35.3895 17.5459 35.5238C17.5207 35.5404 17.5025 35.5656 17.4945 35.5946ZM26.1504 37.0487C25.8056 36.9939 25.4588 36.937 25.1095 36.9242C24.8518 36.9149 24.5929 36.9324 24.3359 36.9458C24.3019 36.8851 24.2548 36.8326 24.198 36.7923C24.0783 36.7126 23.9462 36.7317 23.8133 36.7561C23.8 36.7219 23.7828 36.6893 23.7619 36.6591C23.7433 36.6335 23.7198 36.6118 23.6927 36.5952C23.6657 36.5787 23.6356 36.5677 23.6042 36.5628C23.5249 36.5519 23.4524 36.5844 23.3887 36.6295C23.2896 36.526 23.2117 36.4794 23.0658 36.5034C23.0278 36.5131 22.9886 36.5175 22.9493 36.5164C22.7819 36.4965 22.7325 36.1249 22.6347 36.0067C22.5497 35.9032 22.4306 35.8813 22.3044 35.87C22.2866 35.7481 22.2662 35.6399 22.2075 35.532C22.2107 35.4915 22.2148 35.4411 22.2192 35.3891C22.3801 35.0574 22.3454 34.6847 22.2829 34.3083C22.2478 34.0976 22.2044 33.893 22.2278 33.6782C22.2476 33.4987 22.2918 33.3222 22.3176 33.1433C22.3393 32.9998 22.3341 32.8488 22.3714 32.7085C22.4007 32.597 22.4484 32.4877 22.4881 32.3794C22.5346 32.2536 22.575 32.126 22.6093 31.9963C22.6334 32.0686 22.631 32.1767 22.6412 32.2542C22.6608 32.4281 22.6971 32.5998 22.7496 32.7668C22.8676 33.1173 23.0324 33.4504 23.2395 33.757C23.311 33.8653 23.4004 33.9604 23.4655 34.0723C23.5758 34.2618 23.5088 34.4755 23.6014 34.6626C23.6665 34.7925 23.8072 34.9008 23.9063 35.0071C24.0705 35.1819 24.226 35.3644 24.3977 35.532C24.6445 35.7728 24.9223 35.9712 25.2127 36.1555C25.5256 36.354 25.8466 36.5396 26.1597 36.738C26.302 36.8278 26.4503 36.9153 26.5815 37.0205C26.6549 37.0829 26.7249 37.1491 26.7912 37.2189C26.5756 37.1557 26.3709 37.0926 26.1502 37.0487H26.1504Z" fill="#00312B"/>
<path d="M216.129 35.9325C212.592 35.9325 210.823 34.1397 210.823 30.5541V29.1318H215.125V31.2354C215.125 31.6417 215.205 31.9604 215.364 32.1915C215.524 32.4226 215.779 32.5381 216.129 32.5381C216.751 32.5381 217.062 32.072 217.062 31.1397C217.062 30.3589 216.898 29.7772 216.572 29.3948C216.245 29.0043 215.846 28.6298 215.376 28.2713L213.094 26.5143C212.376 25.9566 211.831 25.367 211.456 24.7455C211.082 24.124 210.894 23.2594 210.894 22.1519C210.894 21.124 211.137 20.2754 211.623 19.6061C212.117 18.9368 212.767 18.4388 213.572 18.1121C214.384 17.7854 215.261 17.6221 216.201 17.6221C219.675 17.6221 221.412 19.3551 221.412 22.8212V23.1559H216.99V22.4746C216.99 22.116 216.926 21.7694 216.799 21.4348C216.679 21.1001 216.44 20.9328 216.082 20.9328C215.476 20.9328 215.173 21.2515 215.173 21.8889C215.173 22.5344 215.428 23.0403 215.938 23.4068L218.591 25.3431C219.42 25.9407 220.113 26.6498 220.671 27.4705C221.237 28.2912 221.52 29.3828 221.52 30.7453C221.52 32.4345 221.038 33.7214 220.073 34.6058C219.117 35.4903 217.803 35.9325 216.129 35.9325Z" fill="#00312B"/>
<path d="M202.73 35.7414V17.8135H207.08V19.8095C207.288 19.1162 207.654 18.5744 208.18 18.184C208.706 17.7936 209.367 17.5983 210.164 17.5983V21.172C209.813 21.172 209.395 21.2118 208.909 21.2915C208.423 21.3632 207.997 21.4668 207.63 21.6022C207.264 21.7297 207.08 21.8732 207.08 22.0325V35.7414H202.73Z" fill="#00312B"/>
<path d="M195.773 35.9325C192.204 35.9325 190.419 34.0799 190.419 30.3748V23.1798C190.419 21.4905 190.893 20.144 191.841 19.14C192.789 18.1281 194.1 17.6221 195.773 17.6221C197.455 17.6221 198.769 18.1281 199.717 19.14C200.666 20.144 201.14 21.4905 201.14 23.1798V30.3748C201.14 34.0799 199.351 35.9325 195.773 35.9325ZM195.773 32.6337C196.132 32.6337 196.387 32.5063 196.538 32.2513C196.698 31.9883 196.777 31.6577 196.777 31.2593V22.4985C196.777 21.4547 196.443 20.9328 195.773 20.9328C195.104 20.9328 194.769 21.4547 194.769 22.4985V31.2593C194.769 31.6577 194.845 31.9883 194.996 32.2513C195.156 32.5063 195.415 32.6337 195.773 32.6337Z" fill="#00312B"/>
<path d="M183.607 35.9325C180.037 35.9325 178.252 34.0799 178.252 30.3748V23.1798C178.252 21.4905 178.726 20.144 179.675 19.14C180.623 18.1281 181.934 17.6221 183.607 17.6221C185.288 17.6221 186.603 18.1281 187.551 19.14C188.499 20.144 188.973 21.4905 188.973 23.1798V30.3748C188.973 34.0799 187.184 35.9325 183.607 35.9325ZM183.607 32.6337C183.965 32.6337 184.22 32.5063 184.372 32.2513C184.531 31.9883 184.611 31.6577 184.611 31.2593V22.4985C184.611 21.4547 184.276 20.9328 183.607 20.9328C182.937 20.9328 182.603 21.4547 182.603 22.4985V31.2593C182.603 31.6577 182.679 31.9883 182.83 32.2513C182.989 32.5063 183.248 32.6337 183.607 32.6337Z" fill="#00312B"/>
<path d="M169.731 35.9328C168.902 35.9328 168.245 35.7814 167.759 35.4787C167.273 35.1759 166.91 34.7576 166.671 34.2237C166.432 33.6898 166.273 33.0644 166.193 32.3472C166.122 31.6301 166.086 30.8612 166.086 30.0405V22.2479C166.086 20.8694 166.329 19.7539 166.815 18.9013C167.309 18.0487 168.142 17.6225 169.313 17.6225C170.181 17.6225 170.847 17.8097 171.309 18.1842C171.779 18.5507 172.141 19.0647 172.396 19.726V14.7062H176.747V35.7416H172.396V33.8412C172.157 34.4866 171.839 34.9966 171.44 35.3711C171.05 35.7456 170.48 35.9328 169.731 35.9328ZM171.369 32.5863C171.775 32.5863 172.046 32.4229 172.181 32.0963C172.325 31.7696 172.396 31.1839 172.396 30.3393V22.7976C172.396 22.3753 172.333 21.961 172.205 21.5546C172.086 21.1403 171.815 20.9331 171.392 20.9331C170.93 20.9331 170.639 21.1284 170.52 21.5188C170.4 21.9092 170.341 22.3355 170.341 22.7976V30.3393C170.341 31.8373 170.683 32.5863 171.369 32.5863Z" fill="#00312B"/>
<path d="M162.405 35.9328C161.25 35.9328 160.469 35.6898 160.063 35.2038C159.664 34.7097 159.465 33.9568 159.465 32.9448V21.7698H158.258V18.5069H159.465V14.7062H163.624V18.5069H164.831V21.7698H163.624V31.9409C163.624 32.2357 163.672 32.4429 163.768 32.5624C163.863 32.6819 164.047 32.7417 164.317 32.7417C164.509 32.7417 164.68 32.7257 164.831 32.6939V35.6101C164.736 35.642 164.437 35.7018 163.935 35.7894C163.433 35.885 162.923 35.9328 162.405 35.9328Z" fill="#00312B"/>
<path d="M149.962 35.933C149.005 35.933 148.272 35.7338 147.762 35.3354C147.26 34.937 146.918 34.3832 146.735 33.6741C146.551 32.957 146.46 32.1203 146.46 31.1642V17.8139H150.762V30.6622C150.762 31.3793 150.818 31.8813 150.93 32.1681C151.041 32.447 151.304 32.5864 151.718 32.5864C152.165 32.5864 152.444 32.3873 152.555 31.9889C152.675 31.5905 152.734 31.0765 152.734 30.4471V17.8139H157.001V35.7418H152.722V33.8295C152.452 34.5147 152.125 35.0366 151.742 35.3952C151.368 35.7537 150.774 35.933 149.962 35.933Z" fill="#00312B"/>
<path d="M139.695 35.9331C138.013 35.9331 136.727 35.4272 135.834 34.4152C134.95 33.3953 134.508 31.9253 134.508 30.005V20.0132C134.508 18.2124 134.946 16.8459 135.822 15.9136C136.707 14.9814 137.997 14.5153 139.695 14.5153C141.392 14.5153 142.679 14.9814 143.555 15.9136C144.44 16.8459 144.882 18.2124 144.882 20.0132V30.005C144.882 31.9253 144.436 33.3953 143.543 34.4152C142.659 35.4272 141.376 35.9331 139.695 35.9331ZM139.731 32.0607C140.368 32.0607 140.687 31.4432 140.687 30.2082V19.9414C140.687 18.9056 140.376 18.3877 139.754 18.3877C139.053 18.3877 138.703 18.9176 138.703 19.9773V30.2321C138.703 30.8854 138.782 31.3555 138.942 31.6424C139.101 31.9213 139.364 32.0607 139.731 32.0607Z" fill="#00312B"/>
<path d="M123.637 35.8003V14.7649H127.987V35.8003H123.637Z" fill="#00312B"/>
<path d="M115.069 35.9916C114.073 35.9916 113.312 35.7605 112.786 35.2984C112.268 34.8362 111.914 34.2028 111.722 33.398C111.531 32.5932 111.435 31.6809 111.435 30.661C111.435 29.5694 111.543 28.677 111.758 27.9838C111.973 27.2826 112.34 26.7089 112.858 26.2627C113.384 25.8165 114.105 25.438 115.021 25.1273L117.674 24.2189V22.3783C117.674 21.4142 117.36 20.9321 116.73 20.9321C116.156 20.9321 115.87 21.3226 115.87 22.1034V23.1791H111.71C111.702 23.1153 111.698 23.0357 111.698 22.94C111.698 22.8365 111.698 22.7209 111.698 22.5934C111.698 20.8086 112.117 19.5457 112.953 18.8047C113.798 18.0557 115.133 17.6812 116.957 17.6812C117.913 17.6812 118.77 17.8525 119.527 18.1951C120.284 18.5298 120.881 19.0278 121.32 19.6891C121.766 20.3505 121.989 21.1672 121.989 22.1393V35.8003H117.734V33.6729C117.527 34.4219 117.184 34.9956 116.706 35.394C116.228 35.7924 115.682 35.9916 115.069 35.9916ZM116.754 32.6689C117.105 32.6689 117.344 32.5215 117.471 32.2267C117.599 31.9319 117.662 31.6132 117.662 31.2705V26.2746C117.073 26.5137 116.615 26.8165 116.288 27.183C115.961 27.5415 115.798 28.0714 115.798 28.7726V31.0793C115.798 32.1391 116.117 32.6689 116.754 32.6689Z" fill="#00312B"/>
<path d="M103.044 35.9917C102.088 35.9917 101.355 35.7925 100.845 35.3941C100.343 34.9957 100 34.4419 99.817 33.7328C99.6338 33.0156 99.5421 32.179 99.5421 31.2228V17.8725H103.845V30.7209C103.845 31.438 103.901 31.94 104.012 32.2268C104.124 32.5057 104.387 32.6451 104.801 32.6451C105.247 32.6451 105.526 32.4459 105.638 32.0475C105.757 31.6491 105.817 31.1352 105.817 30.5057V17.8725H110.084V35.8004H105.805V33.8881C105.534 34.5734 105.207 35.0953 104.825 35.4538C104.45 35.8124 103.857 35.9917 103.044 35.9917Z" fill="#00312B"/>
<path d="M95.7898 35.9915C94.6344 35.9915 93.8536 35.7485 93.4472 35.2624C93.0488 34.7684 92.8496 34.0155 92.8496 33.0035V21.8285H91.6425V18.5656H92.8496V14.7649H97.0089V18.5656H98.216V21.8285H97.0089V31.9996C97.0089 32.2944 97.0567 32.5015 97.1523 32.6211C97.2479 32.7406 97.4312 32.8003 97.7021 32.8003C97.8933 32.8003 98.0646 32.7844 98.216 32.7525V35.6688C98.1204 35.7007 97.8216 35.7604 97.3196 35.8481C96.8176 35.9437 96.3077 35.9915 95.7898 35.9915Z" fill="#00312B"/>
<path d="M86.1335 16.7725V13.2108H90.4123V16.7725H86.1335ZM86.1335 35.8V17.8721H90.4123V35.8H86.1335Z" fill="#00312B"/>
<path d="M77.6707 35.8005V17.8726H82.0211V19.8685C82.2283 19.1753 82.5948 18.6335 83.1207 18.2431C83.6466 17.8526 84.3079 17.6574 85.1047 17.6574V21.2311C84.7542 21.2311 84.3358 21.2709 83.8498 21.3506C83.3637 21.4223 82.9375 21.5259 82.5709 21.6613C82.2044 21.7888 82.0211 21.9322 82.0211 22.0916V35.8005H77.6707Z" fill="#00312B"/>
<path d="M71.6937 16.7725V13.2108H75.9725V16.7725H71.6937ZM71.6937 35.8V17.8721H75.9725V35.8H71.6937Z" fill="#00312B"/>
<path d="M59.432 38.7883V17.8724H63.7825V19.7847C64.0454 19.1234 64.408 18.6095 64.8701 18.2429C65.3402 17.8684 66.0095 17.6812 66.878 17.6812C68.0493 17.6812 68.874 18.1075 69.3521 18.9601C69.8381 19.8126 70.0812 20.9281 70.0812 22.3066V31.1271C70.0812 32.0434 69.9497 32.8721 69.6867 33.6131C69.4318 34.3462 69.0254 34.9278 68.4676 35.3581C67.9179 35.7804 67.1968 35.9916 66.3044 35.9916C65.141 35.9916 64.3004 35.2904 63.7825 33.888V38.7883H59.432ZM64.7984 32.657C65.2446 32.657 65.5115 32.4339 65.5992 31.9877C65.6948 31.5415 65.7426 30.9917 65.7426 30.3383V23.3345C65.7426 22.6731 65.6948 22.1233 65.5992 21.6851C65.5115 21.2389 65.2446 21.0158 64.7984 21.0158C64.3363 21.0158 64.0494 21.2429 63.9379 21.697C63.8343 22.1433 63.7825 22.6891 63.7825 23.3345V30.3383C63.7825 30.9837 63.8343 31.5335 63.9379 31.9877C64.0494 32.4339 64.3363 32.657 64.7984 32.657Z" fill="#00312B"/>
<path d="M53.1933 35.991C51.273 35.991 49.8866 35.5129 49.034 34.5568C48.1894 33.6006 47.7671 32.0787 47.7671 29.9911V27.9354H51.9264V30.5648C51.9264 31.0509 51.9981 31.4333 52.1415 31.7122C52.2929 31.9831 52.5518 32.1186 52.9184 32.1186C53.3008 32.1186 53.5638 32.007 53.7072 31.7839C53.8586 31.5608 53.9343 31.1943 53.9343 30.6843C53.9343 30.0389 53.8705 29.5011 53.743 29.0708C53.6156 28.6326 53.3925 28.2183 53.0737 27.8278C52.763 27.4294 52.3287 26.9673 51.771 26.4414L49.8826 24.6486C48.4723 23.318 47.7671 21.7961 47.7671 20.083C47.7671 18.2902 48.1814 16.9237 49.0101 15.9834C49.8467 15.0432 51.0539 14.5731 52.6315 14.5731C54.5598 14.5731 55.9263 15.0871 56.731 16.1149C57.5438 17.1428 57.9501 18.7045 57.9501 20.8001H53.6713V19.3539C53.6713 19.067 53.5877 18.8439 53.4203 18.6846C53.261 18.5252 53.0419 18.4455 52.763 18.4455C52.4283 18.4455 52.1813 18.5412 52.022 18.7324C51.8706 18.9157 51.7949 19.1547 51.7949 19.4495C51.7949 19.7443 51.8746 20.063 52.0339 20.4057C52.1933 20.7483 52.508 21.1427 52.9781 21.5889L55.4044 23.9195C55.8904 24.3817 56.3366 24.8717 56.743 25.3896C57.1493 25.8996 57.476 26.4972 57.723 27.1824C57.97 27.8597 58.0935 28.6884 58.0935 29.6684C58.0935 31.6445 57.727 33.1942 56.994 34.3177C56.2689 35.4332 55.002 35.991 53.1933 35.991Z" fill="#00312B"/>
</svg>
