<svg width="16" height="16" viewBox="0 0 16 16" fill="none" xmlns="http://www.w3.org/2000/svg">
<path d="M2.20636 11.959L2.6201 12.2398H2.6201L2.20636 11.959ZM4.28319 8.89845L4.69693 9.1792H4.69693L4.28319 8.89845ZM5.22233 8.7303L4.93171 9.13717L5.22233 8.7303ZM6.45952 9.61401L6.75014 9.20714L6.45952 9.61401ZM7.38804 9.46106L6.98227 9.1689L6.98227 9.1689L7.38804 9.46106ZM9.42114 6.63731L9.82691 6.92946L9.82691 6.92946L9.42114 6.63731ZM10.5268 6.67233L10.9502 6.40645H10.9502L10.5268 6.67233ZM13.8588 11.9789L13.4353 12.2447L13.8588 11.9789ZM2.20636 11.959L2.6201 12.2398L4.69693 9.1792L4.28319 8.89845L3.86945 8.6177L1.79262 11.6783L2.20636 11.959ZM5.22233 8.7303L4.93171 9.13717L6.1689 10.0209L6.45952 9.61401L6.75014 9.20714L5.51295 8.32343L5.22233 8.7303ZM7.38804 9.46106L7.7938 9.75321L9.82691 6.92946L9.42114 6.63731L9.01537 6.34515L6.98227 9.1689L7.38804 9.46106ZM10.5268 6.67233L10.1033 6.93821L13.4353 12.2447L13.8588 11.9789L14.2822 11.713L10.9502 6.40645L10.5268 6.67233ZM2.75801 13V13.5H13.2942V13V12.5H2.75801V13ZM13.8588 11.9789L13.4353 12.2447C13.505 12.3557 13.4252 12.5 13.2942 12.5V13V13.5C14.2116 13.5 14.7701 12.4899 14.2822 11.713L13.8588 11.9789ZM9.42114 6.63731L9.82691 6.92946C9.89603 6.83345 10.0404 6.83802 10.1033 6.93821L10.5268 6.67233L10.9502 6.40645C10.5098 5.70509 9.49927 5.67307 9.01537 6.34515L9.42114 6.63731ZM6.45952 9.61401L6.1689 10.0209C6.69182 10.3944 7.41832 10.2747 7.7938 9.75321L7.38804 9.46106L6.98227 9.1689C6.92863 9.2434 6.82484 9.2605 6.75014 9.20714L6.45952 9.61401ZM4.28319 8.89845L4.69693 9.1792C4.74949 9.10174 4.85553 9.08275 4.93171 9.13717L5.22233 8.7303L5.51295 8.32343C4.9797 7.94254 4.23741 8.07544 3.86945 8.6177L4.28319 8.89845ZM2.20636 11.959L1.79262 11.6783C1.26698 12.4529 1.82186 13.5 2.75801 13.5V13V12.5C2.62428 12.5 2.54501 12.3505 2.6201 12.2398L2.20636 11.959ZM7.8333 4.16671H7.3333C7.3333 4.90309 6.73635 5.50004 5.99997 5.50004V6.00004V6.50004C7.28863 6.50004 8.3333 5.45537 8.3333 4.16671H7.8333ZM5.99997 6.00004V5.50004C5.26359 5.50004 4.66663 4.90309 4.66663 4.16671H4.16663H3.66663C3.66663 5.45537 4.7113 6.50004 5.99997 6.50004V6.00004ZM4.16663 4.16671H4.66663C4.66663 3.43033 5.26359 2.83337 5.99997 2.83337V2.33337V1.83337C4.7113 1.83337 3.66663 2.87804 3.66663 4.16671H4.16663ZM5.99997 2.33337V2.83337C6.73635 2.83337 7.3333 3.43033 7.3333 4.16671H7.8333H8.3333C8.3333 2.87804 7.28863 1.83337 5.99997 1.83337V2.33337Z" fill="white"/>
</svg>
