<svg width="48" height="48" viewBox="0 0 48 48" fill="none" xmlns="http://www.w3.org/2000/svg">
<rect width="48" height="48" rx="24" fill="#628237"/>
<path fill-rule="evenodd" clip-rule="evenodd" d="M29.2153 35.7326C29.8058 36.2001 30.3908 36.5692 30.8254 36.8207C31.2086 37.0425 31.6036 37.2353 32.0036 37.4242C32.4037 37.2353 32.7987 37.0424 33.1818 36.8207C33.6163 36.5692 34.2013 36.2001 34.7918 35.7326C35.9003 34.8551 37.3387 33.3883 37.3387 31.5016C37.3387 30.3241 36.9665 29.3443 36.3156 28.6501C35.6695 27.9609 34.8007 27.6115 33.9303 27.6115C33.1237 27.6115 32.478 27.854 32.0365 28.0949L32.0036 28.113L31.9707 28.0949C31.5291 27.854 30.8835 27.6115 30.0769 27.6115C29.2065 27.6115 28.3377 27.9609 27.6916 28.6501C27.0407 29.3443 26.6685 30.3241 26.6685 31.5016C26.6685 33.3883 28.1069 34.8551 29.2153 35.7326Z" fill="white"/>
<path d="M18.0013 16.666C18.0013 13.3523 20.6876 10.666 24.0013 10.666C27.315 10.666 30.0013 13.3523 30.0013 16.666C30.0013 19.9797 27.315 22.666 24.0013 22.666C20.6876 22.666 18.0013 19.9797 18.0013 16.666Z" fill="white"/>
<path d="M24.0008 24.666C17.8462 24.666 13.5404 29.2123 13.0052 34.9058L12.9023 35.9993H26.572C25.6032 34.9254 24.6678 33.4092 24.6678 31.5016C24.6678 29.897 25.1817 28.4023 26.2319 27.2822C26.9718 26.4929 27.8991 25.9785 28.8815 25.7492C27.4451 25.0555 25.8021 24.666 24.0008 24.666Z" fill="white"/>
</svg>
