<svg width="48" height="48" viewBox="0 0 48 48" fill="none" xmlns="http://www.w3.org/2000/svg">
<rect width="48" height="48" rx="24" fill="#628237"/>
<path d="M14.4087 12C12.3396 12 10.668 13.6821 10.668 15.75C10.668 16.708 11.027 17.5827 11.6163 18.2452C11.1341 19.969 10.668 22.1132 10.668 24C10.668 25.8868 11.1341 28.031 11.6163 29.7548C11.027 30.4173 10.668 31.292 10.668 32.25C10.668 34.3179 12.3396 36 14.4087 36C15.4184 36 16.3337 35.5985 17.0054 34.9492C19.047 35.4689 21.6894 36 24.0013 36C26.3132 36 28.9557 35.4689 30.9973 34.9492C31.6689 35.5985 32.5843 36 33.5939 36C35.6631 36 37.3347 34.3179 37.3347 32.25C37.3347 31.292 36.9756 30.4173 36.3863 29.7548C36.8685 28.031 37.3346 25.8868 37.3346 24C37.3346 22.1132 36.8685 19.969 36.3863 18.2452C36.9756 17.5827 37.3346 16.708 37.3346 15.75C37.3346 13.6821 35.663 12 33.5939 12C32.5804 12 31.6619 12.4046 30.9895 13.0582C28.9335 12.5366 26.2759 12 24.0013 12C21.7267 12 19.0691 12.5366 17.0131 13.0582C16.3407 12.4046 15.4222 12 14.4087 12Z" fill="white"/>
</svg>
