<svg width="48" height="48" viewBox="0 0 48 48" fill="none" xmlns="http://www.w3.org/2000/svg">
<rect width="48" height="48" rx="24" fill="#628237"/>
<path d="M34.666 37.332H13.332V31.332H34.666V37.332ZM23.999 15.999C28.4173 15.999 31.999 19.5807 31.999 23.999V29.332H24.749V25.582H23.249V29.332H15.999V23.999C15.999 19.5807 19.5807 15.999 23.999 15.999ZM12.6992 24.999H9.33203V22.999H12.6992V24.999ZM38.666 24.999H35.2988V22.999H38.666V24.999ZM16.7158 15.3018L15.3018 16.7158L12.9209 14.335L14.335 12.9209L16.7158 15.3018ZM35.0771 14.335L32.6963 16.7158L31.2822 15.3018L33.6631 12.9209L35.0771 14.335ZM24.999 12.6992H22.999V9.33203H24.999V12.6992Z" fill="white"/>
</svg>
