<svg width="16" height="16" viewBox="0 0 16 16" fill="none" xmlns="http://www.w3.org/2000/svg">
<path fill-rule="evenodd" clip-rule="evenodd" d="M8.64317 1.62655C8.30353 1.23565 7.69659 1.23565 7.35695 1.62655L6.12894 3.0399L4.27974 2.74656C3.7683 2.66543 3.30336 3.05556 3.29444 3.57333L3.26222 5.44537L1.6571 6.4093C1.21316 6.6759 1.10776 7.27361 1.43375 7.67597L2.61239 9.13075L2.00239 10.9009C1.83368 11.3905 2.13715 11.9161 2.6455 12.0148L4.48351 12.3716L5.15406 14.1197C5.33952 14.6032 5.90986 14.8108 6.36271 14.5597L8.00006 13.6515L9.63741 14.5597C10.0903 14.8108 10.6606 14.6032 10.8461 14.1197L11.5166 12.3716L13.3546 12.0148C13.863 11.9161 14.1664 11.3905 13.9977 10.9009L13.3877 9.13075L14.5664 7.67597C14.8924 7.27361 14.787 6.67589 14.343 6.4093L12.7379 5.44537L12.7057 3.57333C12.6968 3.05556 12.2318 2.66543 11.7204 2.74656L9.87118 3.0399L8.64317 1.62655ZM10.0203 7.52026C10.2155 7.325 10.2155 7.00842 10.0203 6.81315C9.82502 6.61789 9.50844 6.61789 9.31318 6.81315L7.33339 8.79294L6.68694 8.14649C6.49168 7.95123 6.1751 7.95123 5.97984 8.14649C5.78458 8.34175 5.78458 8.65833 5.97984 8.85359L6.97984 9.8536C7.07361 9.94736 7.20079 10 7.33339 10C7.466 10 7.59318 9.94736 7.68695 9.8536L10.0203 7.52026Z" fill="white"/>
</svg>
