<svg width="48" height="48" viewBox="0 0 48 48" fill="none" xmlns="http://www.w3.org/2000/svg">
<rect width="48" height="48" rx="24" fill="#628237"/>
<path d="M24 14.666C20.5967 14.666 16.6726 14.832 13.5803 16.0363C12.016 16.6455 10.6074 17.5411 9.59137 18.8661C8.56651 20.2028 8 21.9001 8 23.9994C8 26.2271 8.5439 28.5305 9.80359 30.3069C11.0913 32.1229 13.0944 33.3327 15.8182 33.3327C17.1684 33.3327 18.2276 33.0351 19.1053 32.5618C19.9676 32.0969 20.6077 31.486 21.134 30.9499C21.2091 30.8735 21.2816 30.7992 21.3519 30.7272C22.3208 29.7347 22.8759 29.166 24 29.166C25.1241 29.166 25.6791 29.7346 26.648 30.7271C26.7183 30.7991 26.7909 30.8735 26.866 30.9499C27.3923 31.486 28.0324 32.0969 28.8947 32.5618C29.7724 33.0351 30.8316 33.3327 32.1818 33.3327C34.9136 33.3327 36.915 32.0935 38.1984 30.2706C39.4547 28.4862 40 26.1855 40 23.9994C40 21.9001 39.4335 20.2028 38.4086 18.8661C37.3926 17.5411 35.984 16.6455 34.4197 16.0363C31.3274 14.832 27.4033 14.666 24 14.666Z" fill="white"/>
</svg>
