<svg width="24" height="24" viewBox="0 0 24 24" fill="none" xmlns="http://www.w3.org/2000/svg">
<path d="M12 4.20782C14.5365 4.20782 14.837 4.21732 15.8389 4.26309C16.4411 4.27037 17.0377 4.38108 17.6024 4.59041C18.0151 4.74271 18.3884 4.98559 18.6949 5.30118C19.0105 5.60766 19.2534 5.98098 19.4057 6.39368C19.615 6.95844 19.7257 7.55497 19.733 8.15723C19.7788 9.15905 19.7883 9.45959 19.7883 11.9961C19.7883 14.5326 19.7788 14.8331 19.733 15.835C19.7257 16.4372 19.615 17.0337 19.4057 17.5985C19.2476 18.0083 19.0055 18.3805 18.6949 18.691C18.3844 19.0016 18.0122 19.2437 17.6024 19.4018C17.0377 19.6111 16.4411 19.7218 15.8389 19.7291C14.837 19.7749 14.5365 19.7844 12 19.7844C9.4635 19.7844 9.16295 19.7749 8.16114 19.7291C7.55859 19.7219 6.96176 19.6112 6.39673 19.4018C5.98433 19.2494 5.61132 19.0065 5.30509 18.691C4.9895 18.3845 4.74662 18.0112 4.59432 17.5985C4.38499 17.0337 4.27427 16.4372 4.267 15.835C4.22123 14.8331 4.21173 14.5326 4.21173 11.9961C4.21173 9.45959 4.22123 9.15905 4.267 8.15723C4.27427 7.55497 4.38499 6.95844 4.59432 6.39368C4.74662 5.98098 4.9895 5.60766 5.30509 5.30118C5.61156 4.98559 5.98488 4.74271 6.39759 4.59041C6.96235 4.38108 7.55888 4.27037 8.16114 4.26309C9.16295 4.21732 9.4635 4.20782 12 4.20782ZM12 2.49609C9.42032 2.49609 9.09645 2.50732 8.08341 2.55309C7.29535 2.56882 6.51567 2.71804 5.7775 2.99441C5.1433 3.23319 4.56886 3.60751 4.09427 4.09123C3.61096 4.56565 3.23695 5.13978 2.99832 5.77359C2.72224 6.51181 2.57331 7.2915 2.55786 8.0795C2.51036 9.09255 2.5 9.41641 2.5 11.9961C2.5 14.5758 2.51123 14.8996 2.557 15.9127C2.57272 16.7007 2.72194 17.4804 2.99832 18.2186C3.2371 18.8528 3.61141 19.4272 4.09514 19.9018C4.56956 20.3851 5.14369 20.7591 5.7775 20.9978C6.51572 21.2739 7.2954 21.4228 8.08341 21.4382C9.09645 21.4857 9.42032 21.4961 12 21.4961C14.5797 21.4961 14.9035 21.4849 15.9166 21.4391C16.7046 21.4234 17.4843 21.2742 18.2225 20.9978C18.8538 20.7537 19.4271 20.3804 19.9057 19.9018C20.3843 19.4232 20.7576 18.8499 21.0017 18.2186C21.2778 17.4804 21.4267 16.7007 21.4421 15.9127C21.4896 14.8996 21.5 14.5758 21.5 11.9961C21.5 9.41641 21.4888 9.09255 21.443 8.0795C21.4273 7.29145 21.2781 6.51176 21.0017 5.77359C20.7629 5.1394 20.3886 4.56495 19.9049 4.09037C19.4304 3.60706 18.8563 3.23305 18.2225 2.99441C17.4843 2.71833 16.7046 2.5694 15.9166 2.55396C14.9035 2.50646 14.5797 2.49609 12 2.49609ZM12 7.11741C11.0351 7.11741 10.0918 7.40354 9.28955 7.93962C8.48725 8.47569 7.86194 9.23764 7.49269 10.1291C7.12343 11.0206 7.02682 12.0015 7.21506 12.9479C7.40331 13.8942 7.86796 14.7635 8.55025 15.4458C9.23255 16.1281 10.1018 16.5928 11.0482 16.781C11.9946 16.9693 12.9755 16.8727 13.867 16.5034C14.7585 16.1342 15.5204 15.5088 16.0565 14.7065C16.5926 13.9042 16.8787 12.961 16.8787 11.9961C16.8787 10.7022 16.3647 9.46128 15.4497 8.54635C14.5348 7.63141 13.2939 7.11741 12 7.11741ZM12 15.163C11.3736 15.163 10.7613 14.9773 10.2405 14.6293C9.71973 14.2813 9.31382 13.7867 9.07412 13.208C8.83442 12.6294 8.7717 11.9926 8.8939 11.3783C9.0161 10.7639 9.31772 10.1996 9.76063 9.75672C10.2035 9.31381 10.7678 9.01219 11.3822 8.88999C11.9965 8.76779 12.6333 8.83051 13.2119 9.07021C13.7906 9.30991 14.2852 9.71583 14.6332 10.2366C14.9812 10.7574 15.167 11.3697 15.167 11.9961C15.167 12.836 14.8333 13.6416 14.2394 14.2355C13.6455 14.8294 12.8399 15.163 12 15.163ZM17.0713 5.78482C16.8458 5.78482 16.6254 5.85168 16.4379 5.97695C16.2505 6.10221 16.1043 6.28025 16.0181 6.48856C15.9318 6.69687 15.9092 6.92609 15.9532 7.14722C15.9972 7.36836 16.1057 7.57149 16.2652 7.73092C16.4246 7.89035 16.6277 7.99893 16.8489 8.04292C17.07 8.0869 17.2992 8.06433 17.5075 7.97804C17.7158 7.89176 17.8939 7.74564 18.0191 7.55817C18.1444 7.3707 18.2113 7.15029 18.2113 6.92482C18.2113 6.62247 18.0912 6.33251 17.8774 6.11872C17.6636 5.90493 17.3736 5.78482 17.0713 5.78482Z" fill="#557571"/>
</svg>
