<svg width="24" height="24" viewBox="0 0 24 24" fill="none" xmlns="http://www.w3.org/2000/svg">
<path d="M19.65 2.99609H4.35C3.99196 2.99609 3.64858 3.13833 3.39541 3.3915C3.14223 3.64467 3 3.98805 3 4.34609V19.6461C3 20.0041 3.14223 20.3475 3.39541 20.6007C3.64858 20.8539 3.99196 20.9961 4.35 20.9961H19.65C20.008 20.9961 20.3514 20.8539 20.6046 20.6007C20.8578 20.3475 21 20.0041 21 19.6461V4.34609C21 3.98805 20.8578 3.64467 20.6046 3.3915C20.3514 3.13833 20.008 2.99609 19.65 2.99609ZM8.4 18.2961H5.7V10.1961H8.4V18.2961ZM7.05 8.62109C6.74056 8.61225 6.4406 8.51241 6.18758 8.33406C5.93456 8.15571 5.7397 7.90675 5.62737 7.61829C5.51503 7.32983 5.49019 7.01466 5.55595 6.71217C5.6217 6.40967 5.77515 6.13326 5.9971 5.91747C6.21906 5.70168 6.49968 5.55608 6.80391 5.49887C7.10814 5.44166 7.42248 5.47536 7.70766 5.59578C7.99284 5.7162 8.23622 5.91799 8.40737 6.17593C8.57853 6.43387 8.66987 6.73653 8.67 7.04609C8.66289 7.46941 8.4885 7.8727 8.18495 8.16782C7.88139 8.46295 7.47335 8.62591 7.05 8.62109ZM18.3 18.2961H15.6V14.0301C15.6 12.7521 15.06 12.2931 14.358 12.2931C14.1522 12.3068 13.9511 12.361 13.7663 12.4527C13.5815 12.5443 13.4166 12.6716 13.2811 12.8271C13.1457 12.9827 13.0422 13.1634 12.9768 13.3591C12.9114 13.5547 12.8853 13.7613 12.9 13.9671C12.8955 14.009 12.8955 14.0512 12.9 14.0931V18.2961H10.2V10.1961H12.81V11.3661C13.0733 10.9656 13.435 10.6394 13.8605 10.4188C14.286 10.1982 14.761 10.0905 15.24 10.1061C16.635 10.1061 18.264 10.8801 18.264 13.4001L18.3 18.2961Z" fill="#557571"/>
</svg>
