<svg width="18" height="18" viewBox="0 0 18 18" fill="none" xmlns="http://www.w3.org/2000/svg">
<path d="M6.6055 5.21294C6.7488 5.21874 6.90754 5.22553 7.0584 5.56063C7.16115 5.78928 7.3339 6.21502 7.47188 6.55507C7.57411 6.80702 7.65725 7.01193 7.67868 7.05475C7.72904 7.15535 7.76243 7.27315 7.69543 7.40726C7.68513 7.42787 7.67563 7.4473 7.66657 7.46585C7.61664 7.56797 7.57976 7.64338 7.49444 7.7428C7.46035 7.78251 7.4251 7.82536 7.38989 7.86817C7.32097 7.95196 7.25217 8.0356 7.1924 8.0953C7.09146 8.19558 6.98636 8.30462 7.10394 8.50594C7.22152 8.70727 7.62537 9.36609 8.22365 9.89956C8.86759 10.4737 9.42677 10.7162 9.70987 10.8389C9.76482 10.8627 9.80938 10.882 9.84212 10.8984C10.0436 10.999 10.1608 10.9822 10.2783 10.8478C10.3957 10.7135 10.781 10.2604 10.9153 10.059C11.0496 9.85752 11.1837 9.89091 11.3682 9.95813C11.5527 10.0253 12.542 10.5122 12.7434 10.6129C12.783 10.6327 12.8201 10.6506 12.8544 10.6671C12.9944 10.7346 13.089 10.7802 13.1293 10.8478C13.1796 10.932 13.1795 11.3347 13.0119 11.8046C12.8443 12.2746 12.0226 12.7279 11.6535 12.7614C11.618 12.7647 11.5826 12.7688 11.5463 12.7731C11.2052 12.8132 10.7747 12.8637 9.23837 12.2579C7.34601 11.5116 6.09877 9.66156 5.84283 9.2819C5.82208 9.25113 5.80785 9.23002 5.80031 9.21994L5.79793 9.21675C5.68894 9.07102 4.9786 8.1212 4.9786 7.13849C4.9786 6.21211 5.43384 5.7263 5.64347 5.50258C5.65791 5.48717 5.67119 5.47301 5.68307 5.46003C5.86742 5.25859 6.0855 5.20823 6.21971 5.20823L6.6055 5.21294Z" fill="#10AB54"/>
<path fill-rule="evenodd" clip-rule="evenodd" d="M0.949051 17.125L2.09186 12.9525C1.38585 11.7284 1.015 10.3399 1.01671 8.92687C1.01857 4.48701 4.63167 0.875 9.07164 0.875C11.2262 0.876095 13.2485 1.71456 14.7695 3.23659C16.2904 4.75862 17.1272 6.78171 17.1265 8.93333C17.1245 13.3729 13.5108 16.9855 9.07153 16.9855H9.06803C7.72007 16.985 6.39553 16.6468 5.21901 16.0053L0.949051 17.125ZM9.07405 2.23522C5.38113 2.23522 2.37791 5.23735 2.3766 8.92742C2.37478 10.1875 2.72961 11.4223 3.40008 12.4892L3.55937 12.7424L2.88292 15.2119L5.41682 14.5475L5.6615 14.6925C6.68914 15.3024 7.86742 15.6249 9.06901 15.6255H9.07153C12.7616 15.6255 15.7648 12.6231 15.7662 8.93278C15.769 8.05321 15.5973 7.18183 15.261 6.36908C14.9248 5.55633 14.4306 4.81836 13.8072 4.19789C13.1872 3.57402 12.4497 3.07932 11.6372 2.74243C10.8248 2.40554 9.95357 2.23314 9.07405 2.23522Z" fill="#10AB54"/>
</svg>
