<svg width="24" height="24" viewBox="0 0 24 24" fill="none" xmlns="http://www.w3.org/2000/svg">
<path fill-rule="evenodd" clip-rule="evenodd" d="M20.2043 4.00385C21.1084 4.28372 21.8189 5.10534 22.0609 6.15085C22.4982 8.04395 22.5 11.9961 22.5 11.9961C22.5 11.9961 22.5 15.9483 22.0609 17.8414C21.8189 18.8869 21.1084 19.7085 20.2043 19.9883C18.5673 20.4961 12 20.4961 12 20.4961C12 20.4961 5.43274 20.4961 3.79568 19.9883C2.89159 19.7085 2.1811 18.8869 1.93908 17.8414C1.5 15.9483 1.5 11.9961 1.5 11.9961C1.5 11.9961 1.5 8.04395 1.93908 6.15085C2.1811 5.10534 2.89159 4.28372 3.79568 4.00385C5.43274 3.49609 12 3.49609 12 3.49609C12 3.49609 18.5673 3.49609 20.2043 4.00385ZM15.5134 11.9964L9.79785 15.296V8.69675L15.5134 11.9964Z" fill="#557571"/>
</svg>
